<?xml version="1.0" encoding="UTF-8"?>
<svg id="Layer_2" data-name="Layer 2" xmlns="http://www.w3.org/2000/svg" viewBox="0 0 358.47 437.86">
  <defs>
    <style>
      .cls-1, .cls-2 {
        fill: #004643;
      }

      .cls-3, .cls-4 {
        fill: #f8bb9c;
      }

      .cls-2, .cls-5, .cls-6, .cls-7, .cls-4, .cls-8, .cls-9, .cls-10, .cls-11, .cls-12, .cls-13 {
        stroke: #004643;
      }

      .cls-2, .cls-5, .cls-6, .cls-7, .cls-4, .cls-8, .cls-9, .cls-11, .cls-12, .cls-13 {
        stroke-width: 1.55px;
      }

      .cls-2, .cls-6, .cls-7, .cls-9 {
        stroke-linecap: round;
        stroke-linejoin: round;
      }

      .cls-5 {
        fill: #d35558;
      }

      .cls-5, .cls-4, .cls-8, .cls-10, .cls-11, .cls-12, .cls-13 {
        stroke-miterlimit: 10;
      }

      .cls-6, .cls-14 {
        fill: #e8e4e6;
      }

      .cls-7 {
        fill: #f9bc60;
      }

      .cls-8 {
        fill: #aa3038;
      }

      .cls-15 {
        fill: #bf8a4a;
      }

      .cls-9, .cls-13 {
        fill: none;
      }

      .cls-10 {
        stroke-width: 1.62px;
      }

      .cls-10, .cls-11 {
        fill: #3da9fc;
      }

      .cls-16, .cls-12 {
        fill: #d99882;
      }
    </style>
  </defs>
  <g id="Layer_1-2" data-name="Layer 1">
    <g>
      <g>
        <path class="cls-7" d="m357.7,427.86c0,1.02-.2,2.02-.59,2.98-.73,1.83-2.12,3.41-3.97,4.53-1.86,1.13-4.08,1.72-6.36,1.72H39.63c-2.14-.02-4.25-.56-6.03-1.58-1.78-1.01-3.16-2.45-3.99-4.14-.82-1.67-1.02-3.52-.6-5.32.42-1.78,1.46-3.41,2.98-4.7.7-.59,1.47-1.1,2.34-1.5,1.63-.79,3.49-1.21,5.38-1.21h307.07c2.9,0,5.68.98,7.72,2.71,2.05,1.72,3.19,4.06,3.19,6.51Z"/>
        <path class="cls-15" d="m356.02,431.07c-.7,1.47-1.85,2.73-3.41,3.66-1.69,1.02-3.76,1.58-5.83,1.58H39.63c-1.98-.02-3.89-.51-5.52-1.44-1.65-.96-2.91-2.26-3.67-3.8-.75-1.55-.93-3.24-.55-4.87.22-.95.64-1.85,1.23-2.68.11.96.38,1.88.82,2.76.86,1.83,2.36,3.38,4.31,4.5,1.94,1.1,4.2,1.69,6.56,1.71h307.13c2.16,0,4.23-.48,6.07-1.41Z"/>
      </g>
      <path class="cls-12" d="m229.62,278.73c-4.4.9-57.85,1.4-63.42.33,0,0,.37-74.75.2-77.01h.02c8.73-3.72,54.27-3.74,62.94-.05.03.02.08.03.11.05-.02.19-.03.36-.03.54-.03.31-.09,73.9.19,76.15Z"/>
      <g>
        <path class="cls-2" d="m271.93,138.83s-.02.09-.03.14c-.53,2.51-1.12,4.84-1.74,7.01-1.71,6.39-4.09,12.58-7.12,18.44.99-6.84,1.44-13.63,1.33-20.14.02-1.63-.03-3.26-.14-4.88-.67-11.26-3.88-22.05-7.12-32.89.65-4.28,2.59-11.91,1.95-17.91-7.78,1.66-4.03-14.03-11.26-16.79-1.66-8.75-23.4-18.11-34.95-15.86-5.89-.02-14.72,5.99-19.48,5.16-3.46-1.18-21.26-12.64-39.71,6.36-3.69-.14-2.5-5.07-3.5-6.99-.47-.34-2.59,4.16-2.79,4.3-8.9,22.64-28.25,11.15-19.43,34.39-5.44,12.64-7.86,27.71-7.64,43.31.12,7.91.93,15.96,2.36,23.9h-.4l-.05-.05c-1.61-1.78-7.55-9.4-10.78-26.81v-.05h-.02c-1.83-10.89-2.42-21.97-1.77-33,1.4-29.01,12.95-45.36,18.64-48.21,5.71-2.85,3.16-7.01,4.51-9.91,1.35-2.88,5.15-2.16,10.17-7.61,5.01-5.46,22-8.47,22-8.47,12.7-7.61,40.04-6.06,47.81-2.88,7.77,3.18,1.21,2.81,13.01,5.78,11.8,2.96,19.76,7.82,21.06,11.06,1.3,3.26,8.36,17.24,16.45,21.11,8.08,3.86,8.85,18.38,8.85,18.38,3.47,17.55,3.4,35.62-.23,53.14Z"/>
        <g>
          <path class="cls-4" d="m264.37,144.28c.11,6.51-.34,13.31-1.33,20.14-1.27,8.73-3.44,17.55-6.47,25.99-.6,1.71-1.26,3.41-1.95,5.09-.03.06-.06.12-.08.2-8.67,22.35-23.29,39.48-40.89,47.19-6.64,2.93-13.72,4.5-21.06,4.5-31,0-57.33-28.08-66.74-67.08-.02-.02,0-.03,0-.03-1.29-4.56-2.36-9.23-3.19-13.91-1.43-7.94-2.23-15.99-2.36-23.9-.05-3.88.06-7.71.34-11.49.82-11.44,3.21-22.31,7.3-31.82-8.82-23.25,10.53-11.75,19.43-34.39.2-.14,2.33-4.64,2.79-4.3.9,1.72.05,5.85,2.5,6.79.29.12.62.19,1.01.2,18.45-19,36.26-7.54,39.71-6.36,4.76.82,13.58-5.18,19.48-5.16,1.07-.22,2.23-.33,3.46-.34,11.96-.17,29.99,8.27,31.49,16.2,7.23,2.76,3.47,18.45,11.26,16.79.64,6-1.3,13.63-1.95,17.91,3.24,10.84,6.45,21.63,7.12,32.89.11,1.63.16,3.26.14,4.88Z"/>
          <path class="cls-16" d="m263.47,151.98c-1.63-15.32-6.82-34.05-9.43-42.8-.14-.4-.17-.88-.11-1.33.16-1.01.37-2.17.62-3.49.57-3.05,1.29-6.85,1.41-10.36l.02-.56-.51-.2c-3.63-1.4-4.81-6.47-5.52-9.55-.82-3.68-1.6-6.53-3.35-7.2-.99-.37-1.74-1.27-1.94-2.31-.34-1.8-2.48-4.19-5.64-6.31-8.09-7.37-18.38-9.16-27.21-9.16-2.79,0-5.43.19-7.8.42,3.13-1.23,6.31-2.42,8.82-2.42h.03l.16-.02c.99-.2,2.11-.31,3.32-.33h.34c11.44,0,28.94,7.94,30.38,15.57l.08.43.4.16c3.04,1.15,3.92,5.07,4.79,8.84.95,4.16,1.92,8.47,6.05,8.11.28,4.39-.7,9.65-1.43,13.54-.23,1.26-.45,2.4-.59,3.37l-.03.19.05.16c3.16,10.56,6.42,21.48,7.09,32.72.11,1.61.16,3.23.14,4.84v.02c.05,2.53,0,5.09-.12,7.69Z"/>
          <path class="cls-16" d="m209.91,243.55c-5.61,2.03-11.41,3.05-17.32,3.05-29.77,0-56.21-26.55-65.89-66.09l.02-.02-.12-.45c-1.27-4.51-2.34-9.16-3.18-13.83-1.43-7.97-2.22-15.97-2.34-23.77-.02-1.91,0-3.81.05-5.69,7.06,53.33,18.87,66.17,30.02,81.04,18.08,23.14,36.77,28.81,58.77,25.76Z"/>
        </g>
        <path class="cls-1" d="m157.43,124.91c-6.9,0-12.51,9.7-12.51,21.62s5.61,21.63,12.51,21.63,12.52-9.7,12.52-21.63-5.61-21.62-12.52-21.62Z"/>
        <path class="cls-14" d="m165.24,138.28c0,.85-.25,1.69-.73,2.4-.47.71-1.15,1.26-1.94,1.59-.79.33-1.66.41-2.49.25s-1.61-.58-2.21-1.18c-.6-.6-1.01-1.37-1.18-2.21-.17-.84-.08-1.7.25-2.49s.88-1.46,1.59-1.93c.71-.47,1.54-.73,2.4-.73,1.14,0,2.24.45,3.05,1.26s1.26,1.91,1.26,3.05Z"/>
        <path class="cls-1" d="m227.7,124.91c-6.91,0-12.51,9.7-12.51,21.62s5.6,21.63,12.51,21.63,12.51-9.7,12.51-21.63-5.58-21.62-12.51-21.62Z"/>
        <path class="cls-14" d="m228.64,138.28c0,.85-.25,1.69-.73,2.4s-1.15,1.26-1.94,1.59c-.79.33-1.66.41-2.49.25-.84-.17-1.61-.58-2.21-1.18-.6-.6-1.01-1.37-1.18-2.21-.17-.84-.08-1.7.25-2.49.33-.79.88-1.46,1.59-1.93.71-.47,1.54-.73,2.4-.73,1.14,0,2.24.45,3.05,1.26.81.81,1.26,1.91,1.26,3.05Z"/>
        <path class="cls-1" d="m183.16,118.06c-.65-1.63-1.67-3.09-3-4.25-1.32-1.16-2.91-1.98-4.62-2.39-5.79-1.32-8.73-6.6-18.13-8.03-3.57-.56-7.18-.76-10.79-.58l-.18.55c-3.19.85-6.01,2.72-8.06,5.3,0,0-5.95,1.99-6.69,10.55,0,0,5.06-4.06,14.63-5.68l-.84,1.4s12.56-4.19,23.2,1.77c9.45,5.19,14.48,1.36,14.48,1.36Z"/>
        <path class="cls-1" d="m254.04,128.35c-6-6.55-14.19-10.7-23.02-11.67,0,0-3.4,2.77-9.11.72,0,0-10.05,5.16-13.97,2.06-.19-1.15-.02-2.33.49-3.38.51-1.05,1.33-1.92,2.35-2.48,2.6-.02,5.12-.91,7.15-2.53,3.92-2.82,21.95-6.6,26.88,2.27,0,0,8.24,1.39,9.22,15.01Z"/>
        <path class="cls-9" d="m185.52,169.93l8.4,5.39c.82.52,1.77.79,2.74.78.97-.02,1.92-.31,2.72-.86l7.75-5.34"/>
        <path class="cls-6" d="m228.11,190.99c-.09,15.71-14.86,28.44-33.05,28.44s-32.95-12.73-33.05-28.44c9.27,3.46,20.7,5.5,33.05,5.5s23.77-2.05,33.05-5.5Z"/>
        <path class="cls-9" d="m165.23,203.11c8.65,2.79,18.89,4.4,29.84,4.4s21.18-1.61,29.84-4.4h.02"/>
        <g>
          <path class="cls-4" d="m128.17,190.08c-3.13,1.66-10.79,4.2-14.34-7.72,0,0-1.12-.26-2.37-1.71-1.72-1.91-3.72-5.86-3.83-13.97-.19-14.22-5.92-20.47-5.4-24.07.34-2.28,1.5-4.37,3.88-4.67,1.35-.19,3.09.22,5.3,1.5h.02v.05c3.23,17.41,9.16,25.03,10.78,26.81l.05.05h.4c1.27,7.1,3.07,14.13,5.32,20.87-.16,1.02-.11,1.98.2,2.85Z"/>
          <path class="cls-16" d="m127.26,189.68c-1.67.78-4.37,1.63-6.93.56-2.54-1.07-4.47-3.8-5.75-8.09l-.14-.42-.42-.11s-.5-.14-1.16-.68c.11-.05.23-.08.36-.11,2.96-.78,4.62.4,5.83,1.26.78.54,1.49,1.07,2.33.82.82-.25,1.27-1.12,1.6-1.94,1.81-4.5-1.47-9.68-6.95-18.27l-1.02-1.61c-4.19-6.62-6.84-17.27-7.94-22.39,1.05.06,2.28.5,3.68,1.26,3.26,17.37,9.16,24.97,10.98,26.95l.22.23h.08c1.26,6.81,2.99,13.58,5.18,20.17-.11.85-.09,1.64.08,2.37Z"/>
        </g>
        <g>
          <path class="cls-4" d="m274.59,166.7c-.2,14.22-6.22,15.68-6.22,15.68-.22.73-.45,1.41-.71,2.05v.02c-2.96,7.49-7.85,7.66-11.24,6.62.08-.22.14-.43.16-.65,3.02-8.44,5.19-17.26,6.47-25.99,3.02-5.86,5.41-12.05,7.12-18.44.33-1.13.64-2.31.93-3.54.29-1.12.56-2.28.81-3.47.03-.05.05-.09.06-.14,5.24-2.48,7.55.59,8,3.8.6,3.58-5.18,9.83-5.37,24.07Z"/>
          <path class="cls-16" d="m279.2,142.76c.19,1.15-.47,2.81-1.36,5.1-.78,1.95-1.75,4.42-2.54,7.52-.79,3.09-1.41,6.81-1.47,11.3-.16,10.84-3.77,13.93-5.12,14.7.37-2.14,1.16-4.05,2.26-5.44,3.04-3.86,2.53-8.05,1.97-12.47-.12-1.05-.26-2.12-.34-3.21-.22-2.64.67-5.52,1.52-8.33.93-3.01,1.8-5.88,1.35-8.4-.17-.99-.6-1.69-1.3-2.06-.36-.19-.76-.28-1.21-.28-.25,0-.5.03-.78.08.16-.62.29-1.24.42-1.88,1.85-.81,3.35-.9,4.48-.29,1.1.59,1.88,1.92,2.12,3.66Z"/>
        </g>
      </g>
      <g>
        <path class="cls-4" d="m111.97,324.73h-20.57c-6.16,0-12.1-2.25-16.72-6.32l-38.32-33.78s-35.23,6.3-32.46-27.59c2.09-11.04,5.15-12.3,15.83-16.45,23.8-9.23,28.72,12.81,28.72,12.81l40.24,36.19,5.77,5.19,2.17,3.72,15.34,26.22Z"/>
        <polygon class="cls-4" points="97.69 297.69 96.64 298.51 94.47 294.79 97.69 297.69"/>
        <rect class="cls-2" x="18.09" y="204.99" width="14.63" height="88.54" transform="translate(-33.96 5.84) rotate(-7.89)"/>
        <g>
          <path class="cls-3" d="m10.73,254.28s20.71-4.06,21.19,1.87-20.95,6.41-20.95,6.41"/>
          <path class="cls-1" d="m10.73,254.28c3.7-.98,7.48-1.68,11.34-1.93,2.93-.11,6.07-.3,8.81,1.13,1.69.81,2.41,3.21,1.2,4.72-2.35,2.77-6.29,3.24-9.62,3.85-3.82.56-7.66.68-11.49.51,3.8-.43,7.58-.96,11.28-1.7,2.25-.4,12.15-2.77,7.86-6.08-2.38-1.23-5.31-1.16-8-1.22-3.77.04-7.58.34-11.38.73h0Z"/>
        </g>
        <g>
          <path class="cls-3" d="m10.46,246.18s20.71-4.06,21.19,1.87-20.95,6.41-20.95,6.41"/>
          <path class="cls-1" d="m10.46,246.18c3.7-.98,7.48-1.68,11.34-1.93,2.93-.11,6.07-.3,8.81,1.13,1.69.81,2.41,3.21,1.2,4.72-2.35,2.77-6.29,3.24-9.62,3.85-3.82.56-7.66.68-11.49.51,3.8-.43,7.58-.96,11.28-1.7,2.25-.4,12.15-2.77,7.86-6.08-2.38-1.23-5.31-1.16-8-1.22-3.77.04-7.58.34-11.38.73h0Z"/>
        </g>
        <g>
          <path class="cls-3" d="m12.78,262.91s20.71-4.06,21.19,1.87-20.95,6.41-20.95,6.41"/>
          <path class="cls-1" d="m12.78,262.91c3.7-.98,7.48-1.68,11.34-1.93,2.93-.11,6.07-.3,8.81,1.13,1.69.81,2.41,3.21,1.2,4.72-2.35,2.77-6.29,3.24-9.62,3.85-3.82.56-7.66.68-11.49.51,3.8-.43,7.58-.96,11.28-1.7,2.25-.4,12.15-2.77,7.86-6.08-2.38-1.23-5.31-1.16-8-1.22-3.77.04-7.58.34-11.38.73h0Z"/>
        </g>
        <g>
          <path class="cls-3" d="m13.99,271.67s20.71-4.06,21.19,1.87-20.95,6.41-20.95,6.41"/>
          <path class="cls-1" d="m13.99,271.67c3.7-.98,7.48-1.68,11.34-1.93,2.93-.11,6.07-.3,8.81,1.13,1.69.81,2.41,3.21,1.2,4.72-2.35,2.77-6.29,3.24-9.62,3.85-3.82.56-7.66.68-11.49.51,3.8-.43,7.58-.96,11.28-1.7,2.25-.4,12.15-2.77,7.86-6.08-2.38-1.23-5.31-1.16-8-1.22-3.77.04-7.58.34-11.38.73h0Z"/>
        </g>
        <path class="cls-4" d="m38.26,250.81s-26.39,5.58-27.1.47,12.88-10.35,22.81-9.69"/>
        <path class="cls-4" d="m12.08,206.42s-12.24-1.99-11.25-21.32,7.38-24.2,8.39-33.62c1.01-9.42-.67,6.23,8.58,19.09,9.25,12.86,11.94,18.58,11.1,25.13-.84,6.56-2.32,8.71-2.32,8.71l-14.5,2.01Z"/>
      </g>
      <polygon class="cls-4" points="293.35 318.66 271.97 389.64 256.28 320.51 274.81 307.06 293.35 318.66"/>
      <path class="cls-11" d="m264.8,321.14l36.04-3.13-14.84-51.47c-5.16-12.61-20.97-17.04-20.97-17.04-11.42-3.55-24.78-9.57-35.42-4.11h0s-5.05,4.67-5.05,4.67c-15.53,14.36-39,15.85-56.22,3.57l-2.03-1.45-20.36,2.27c-9.95,1.11-19.16,5.83-25.86,13.27l-31.42,17.16,24.38,41.69,24.64-13.85"/>
      <polyline class="cls-10" points="262.42 290.62 274.7 418.63 133.26 418.63 137.69 292"/>
      <g>
        <path class="cls-8" d="m145.36,28.46s-5.01-19.32-13.27-23.26c0,0-3.66,4.69-5.44,6.85,0,0,14.45,11.07,14.92,19.23.47,8.16,3.79-2.81,3.79-2.81Z"/>
        <path class="cls-5" d="m201.61,9.42c7.18,11.11-14.86,27.96-41.88,45.42-27.02,17.46-52.94,28.46-60.11,17.36-15.09-23.15,8.75-31.76,39.89-47.52,19.26-19.76,50.73-33.72,62.1-15.25Z"/>
      </g>
      <g>
        <path class="cls-13" d="m136.27,332.53s40.72-10.42,58.48-4.7,37.94.84,47.53.17,23.39-3.43,23.39-3.43"/>
        <path class="cls-13" d="m135.13,365.23s41.86-8.85,59.63-3.13c17.77,5.72,37.94.84,47.53.17s26.69-4.34,26.69-4.34"/>
        <line class="cls-13" x1="154.01" y1="328.85" x2="154.01" y2="362.06"/>
        <line class="cls-13" x1="179.23" y1="326.14" x2="179.23" y2="360.4"/>
        <line class="cls-13" x1="201.94" y1="329.59" x2="201.94" y2="363.85"/>
        <line class="cls-13" x1="223.27" y1="330.18" x2="225.63" y2="364.24"/>
        <line class="cls-13" x1="245.84" y1="327.69" x2="251.02" y2="361.41"/>
      </g>
    </g>
  </g>
</svg>