<svg class="h-96" version="1.1" id="Layer_1" xmlns="http://www.w3.org/2000/svg" xmlns:xlink="http://www.w3.org/1999/xlink" x="0px" y="0px"
	 viewBox="0 0 491.6 428.8" style="enable-background:new 0 0 491.6 428.8;" xml:space="preserve">
<g>
	<g>
		<path style="fill:#F9BC60;stroke:#004643;stroke-width:1.5507;stroke-linecap:round;stroke-linejoin:round;" d="M408.8,414.1
			c0,0.9-0.2,1.8-0.5,2.7c-0.6,1.6-1.9,3.1-3.7,4.1s-3.7,1.6-5.8,1.6H118.3c-1.9,0-3.8-0.5-5.5-1.5c-1.6-0.9-2.9-2.3-3.7-3.7
			c-0.7-1.6-0.9-3.2-0.5-4.8c0.4-1.6,1.4-3.1,2.7-4.3c0.6-0.5,1.4-1,2.1-1.4c1.5-0.7,3.2-1.1,4.9-1.1H399c2.6,0,5.2,0.9,7,2.5
			C407.8,409.7,408.8,411.9,408.8,414.1z"/>
		<g>
			<path style="fill:#BF8A4A;" d="M407.3,417c-0.6,1.4-1.7,2.5-3.1,3.4c-1.6,0.9-3.5,1.5-5.3,1.5H118.3c-1.8,0-3.6-0.5-5-1.3
				c-1.5-0.9-2.6-2.1-3.4-3.5c-0.7-1.5-0.8-2.9-0.5-4.5c0.2-0.8,0.5-1.6,1.1-2.5c0.1,0.9,0.4,1.7,0.7,2.6c0.8,1.6,2.2,3.1,3.9,4.1
				s3.8,1.6,6,1.6h280.5C403.7,418.4,405.6,418,407.3,417z"/>
		</g>
	</g>
	<path style="fill:#D99882;stroke:#004643;stroke-width:1.5507;stroke-miterlimit:10;" d="M291.8,277.9c-4,0.8-52.9,1.3-57.9,0.3
		c0,0,0.4-68.3,0.2-70.3l0,0c7.9-3.4,49.6-3.4,57.5,0h0.1c0,0.2,0,0.4,0,0.5C291.6,208.7,291.6,275.8,291.8,277.9z"/>
	<g>
		<path style="fill:#004643;stroke:#004643;stroke-width:1.5507;stroke-linecap:round;stroke-linejoin:round;" d="M330.4,150.1
			L330.4,150.1c-0.5,2.4-1,4.5-1.6,6.5c-1.6,5.8-3.7,11.5-6.5,16.8c0.9-6.2,1.3-12.4,1.2-18.4c0-1.5,0-3-0.1-4.5
			c-0.6-10.3-3.6-20.2-6.5-30.1c0.6-3.9,2.4-10.9,1.8-16.4c-7.1,1.6-3.7-12.8-10.3-15.3c-1.6-7.9-21.4-16.5-32-14.5
			c-5.4,0-13.4,5.5-17.8,4.8c-3.2-1.1-19.5-11.5-36.3,5.8c-3.4-0.1-2.3-4.7-3.2-6.4c-0.5-0.3-2.4,3.8-2.6,3.9
			c-8.1,20.6-25.9,10.1-17.7,31.4c-4.9,11.5-7.2,25.3-6.9,39.6c0.1,7.2,0.8,14.6,2.2,21.8h-0.5l0,0c-1.5-1.6-6.9-8.6-9.9-24.5l0,0
			l0,0c-1.6-10-2.2-20.1-1.6-30.1c1.3-26.5,11.8-41.5,17-44c5.2-2.6,2.9-6.4,4.1-9c1.2-2.6,4.7-2,9.3-6.9c4.6-5,20.1-7.8,20.1-7.8
			c11.6-6.9,36.5-5.6,43.7-2.6c7.1,2.9,1.1,2.6,11.9,5.3s18.1,7.1,19.3,10.1c1.2,3,7.7,15.7,15.1,19.3s8.1,16.8,8.1,16.8
			C333.9,117.6,333.8,134.1,330.4,150.1z"/>
		<g>
			<path style="fill:#F8BB9C;stroke:#004643;stroke-width:1.5507;stroke-miterlimit:10;" d="M323.6,155c0.1,5.9-0.3,12.1-1.2,18.4
				c-1.2,7.9-3.1,16.1-5.9,23.8c-0.5,1.6-1.2,3.1-1.8,4.7c0,0.1-0.1,0.1-0.1,0.2c-7.9,20.4-21.3,36.1-37.4,43.1
				c-6,2.6-12.5,4.1-19.3,4.1c-28.3,0-52.3-25.7-60.9-61.3l0,0c-1.2-4.2-2.2-8.4-2.9-12.7c-1.3-7.2-2-14.6-2.2-21.8
				c0-3.6,0.1-7,0.3-10.5c0.7-10.4,2.9-20.4,6.7-29.1c-8-21.2,9.6-10.8,17.7-31.4c0.2-0.1,2.1-4.2,2.6-3.9c0.8,1.6,0,5.3,2.3,6.2
				c0.3,0.1,0.5,0.2,0.9,0.2c16.9-17.4,33.2-6.9,36.3-5.8c4.4,0.7,12.4-4.8,17.8-4.8c1-0.2,2-0.3,3.2-0.3c11-0.2,27.4,7.6,28.8,14.8
				c6.6,2.6,3.2,16.9,10.3,15.3c0.5,5.5-1.2,12.4-1.8,16.4c2.9,9.9,5.9,19.7,6.5,30.1C323.6,152.1,323.6,153.6,323.6,155z"/>
			<g>
				<path style="fill:#D99882;" d="M322.8,162.2c-1.5-14-6.2-31.2-8.6-39.1c-0.1-0.4-0.2-0.8-0.1-1.2c0.2-0.9,0.4-2,0.5-3.2
					c0.5-2.8,1.2-6.3,1.3-9.5v-0.5l-0.5-0.2c-3.3-1.3-4.4-5.9-5-8.8c-0.7-3.4-1.5-5.9-3-6.6c-0.9-0.4-1.6-1.2-1.7-2.1
					c-0.3-1.6-2.3-3.8-5.1-5.8c-7.4-6.8-16.8-8.4-24.8-8.4c-2.6,0-4.9,0.2-7.1,0.4c2.8-1.1,5.8-2.2,8-2.2l0,0h0.2
					c0.9-0.2,1.9-0.3,3-0.3h0.3c10.4,0,26.4,7.2,27.8,14.3l0.1,0.4l0.4,0.2c2.7,1,3.6,4.7,4.4,8c0.8,3.8,1.7,7.8,5.5,7.4
					c0.3,4-0.6,8.8-1.3,12.3c-0.2,1.2-0.4,2.2-0.5,3.1v0.2v0.2c2.9,9.7,5.8,19.6,6.5,29.9c0.1,1.5,0.2,2.9,0.1,4.4l0,0
					C323,157.4,322.9,159.7,322.8,162.2z"/>
			</g>
			<g>
				<path style="fill:#D99882;" d="M273.8,245.8c-5.1,1.8-10.4,2.8-15.8,2.8c-27.2,0-51.3-24.2-60.2-60.4l0,0l-0.1-0.4
					c-1.2-4.1-2.1-8.4-2.9-12.6c-1.3-7.3-2-14.6-2.1-21.7c0-1.7,0-3.5,0-5.2c6.5,48.7,17.3,60.5,27.4,74
					C236.6,243.4,253.7,248.6,273.8,245.8z"/>
			</g>
		</g>
		<path style="fill:#004643;" d="M225.8,137.4c-6.3,0-11.4,8.9-11.4,19.7c0,10.9,5.1,19.7,11.4,19.7c6.3,0,11.4-8.9,11.4-19.7
			C237.4,146.3,232.2,137.4,225.8,137.4z"/>
		<path style="fill:#E8E4E6;" d="M233.1,149.6c0,0.8-0.3,1.6-0.6,2.2c-0.5,0.6-1,1.2-1.7,1.5s-1.6,0.4-2.3,0.2s-1.5-0.5-2-1.1
			c-0.5-0.5-0.9-1.3-1.1-2c-0.2-0.7-0.1-1.6,0.2-2.3s0.8-1.4,1.5-1.7c0.6-0.5,1.4-0.6,2.2-0.6c1,0,2,0.5,2.8,1.2
			C232.6,147.5,233.1,148.6,233.1,149.6z"/>
		<path style="fill:#004643;" d="M290.1,137.4c-6.3,0-11.4,8.9-11.4,19.7c0,10.9,5.1,19.7,11.4,19.7s11.4-8.9,11.4-19.7
			S296.5,137.4,290.1,137.4z"/>
		<path style="fill:#E8E4E6;" d="M291,149.6c0,0.8-0.3,1.6-0.6,2.2c-0.5,0.6-1,1.2-1.7,1.5s-1.6,0.4-2.3,0.2c-0.7-0.2-1.5-0.5-2-1.1
			c-0.5-0.5-0.9-1.3-1.1-2s-0.1-1.6,0.2-2.3c0.3-0.7,0.8-1.4,1.5-1.7c0.6-0.5,1.4-0.6,2.2-0.6c1,0,2,0.5,2.8,1.2
			C290.5,147.5,291,148.6,291,149.6z"/>
		<path style="fill:#004643;" d="M249.4,131.1c-0.5-1.5-1.6-2.8-2.7-3.8c-1.2-1.1-2.6-1.8-4.2-2.2c-5.3-1.2-7.9-6-16.5-7.3
			c-3.3-0.5-6.6-0.7-9.9-0.5l-0.2,0.5c-2.9,0.8-5.5,2.5-7.4,4.8c0,0-5.5,1.8-6.1,9.7c0,0,4.7-3.7,13.3-5.2l-0.7,1.3
			c0,0,11.5-3.8,21.2,1.6C244.8,134.7,249.4,131.1,249.4,131.1z"/>
		<path style="fill:#004643;" d="M314.2,140.5c-5.5-5.9-13-9.8-21-10.7c0,0-3.1,2.6-8.3,0.6c0,0-9.2,4.8-12.8,1.9
			c-0.2-1.1,0-2.1,0.5-3.1c0.5-0.9,1.2-1.7,2.2-2.3c2.4,0,4.7-0.8,6.6-2.3c3.6-2.6,20.1-6,24.6,2.1
			C305.7,126.8,313.3,128.1,314.2,140.5z"/>
		<path style="fill:none;stroke:#004643;stroke-width:1.5507;stroke-linecap:round;stroke-linejoin:round;" d="M251.5,178.5l7.7,4.9
			c0.7,0.5,1.6,0.7,2.5,0.7s1.7-0.3,2.5-0.8l7-4.8"/>
		<path style="fill:#E8E4E6;stroke:#004643;stroke-width:1.5507;stroke-linecap:round;stroke-linejoin:round;" d="M290.4,197.8
			c-0.1,14.3-13.6,25.9-30.1,25.9s-30.1-11.6-30.1-25.9c8.5,3.2,18.9,5,30.1,5S282,200.9,290.4,197.8z"/>
		<path style="fill:none;stroke:#004643;stroke-width:1.5507;stroke-linecap:round;stroke-linejoin:round;" d="M233,208.8
			c7.9,2.6,17.3,4,27.2,4c9.9,0,19.4-1.5,27.2-4l0,0"/>
		<g>
			<path style="fill:#F8BB9C;stroke:#004643;stroke-width:1.5507;stroke-miterlimit:10;" d="M199.2,197c-2.8,1.6-9.9,3.8-13.1-7
				c0,0-1-0.3-2.2-1.6c-1.6-1.7-3.4-5.4-3.5-12.8c-0.2-13-5.4-18.7-4.9-22c0.3-2.1,1.4-4,3.6-4.3c1.2-0.2,2.8,0.2,4.8,1.4l0,0l0,0
				c2.9,15.9,8.4,22.8,9.9,24.5l0,0h0.4c1.2,6.5,2.8,12.9,4.8,19.1C198.8,195.2,198.9,196.1,199.2,197z"/>
			<g>
				<path style="fill:#D99882;" d="M198.3,196.6c-1.6,0.7-4,1.5-6.3,0.5s-4.1-3.5-5.3-7.4l-0.1-0.4l-0.4-0.1c0,0-0.5-0.1-1.1-0.6
					c0.1,0,0.2-0.1,0.4-0.1c2.7-0.7,4.2,0.4,5.3,1.2c0.7,0.5,1.4,1,2.1,0.7c0.7-0.2,1.2-1,1.5-1.7c1.6-4.1-1.4-8.9-6.3-16.7
					l-0.9-1.5c-3.8-6-6.2-15.8-7.2-20.5c1,0.1,2.1,0.5,3.4,1.2c3,15.9,8.4,22.8,10,24.7l0.2,0.2h0.1c1.2,6.2,2.7,12.4,4.8,18.5
					C198.2,195.1,198.2,195.9,198.3,196.6z"/>
			</g>
		</g>
		<g>
			<path style="fill:#F8BB9C;stroke:#004643;stroke-width:1.5507;stroke-miterlimit:10;" d="M332.9,175.6c-0.2,13-5.7,14.3-5.7,14.3
				c-0.2,0.6-0.4,1.3-0.6,1.8l0,0c-2.7,6.9-7.1,7-10.2,6c0.1-0.2,0.1-0.4,0.2-0.6c2.7-7.7,4.8-15.8,5.9-23.8
				c2.7-5.4,4.9-11,6.5-16.8c0.3-1,0.5-2.1,0.8-3.2c0.3-1,0.5-2.1,0.7-3.2c0,0,0-0.1,0.1-0.1c4.8-2.3,6.9,0.5,7.3,3.5
				C338.4,156.9,333.1,162.5,332.9,175.6z"/>
			<g>
				<path style="fill:#D99882;" d="M337.1,153.7c0.2,1-0.5,2.6-1.3,4.7c-0.7,1.8-1.6,4-2.3,6.9c-0.7,2.8-1.3,6.2-1.4,10.3
					c-0.2,9.9-3.5,12.7-4.7,13.4c0.4-1.9,1.1-3.7,2.1-4.9c2.7-3.6,2.3-7.3,1.8-11.4c-0.1-1-0.3-1.9-0.3-2.9c-0.2-2.4,0.6-5,1.4-7.6
					c0.8-2.7,1.6-5.4,1.2-7.7c-0.2-0.9-0.5-1.6-1.2-1.9c-0.4-0.2-0.7-0.3-1.1-0.3c-0.2,0-0.5,0-0.7,0.1c0.2-0.5,0.3-1.1,0.4-1.7
					c1.6-0.7,3-0.8,4.1-0.3C336.2,150.9,336.9,152.1,337.1,153.7z"/>
			</g>
		</g>
	</g>
	<polygon style="fill:#F8BB9C;stroke:#004643;stroke-width:1.5507;stroke-miterlimit:10;" points="350.1,314.4 330.5,379.2
		316.2,316.1 333.1,303.8 	"/>
	<path style="fill:#3DA9FC;stroke:#004643;stroke-width:1.5507;stroke-miterlimit:10;" d="M324,316.6l32.9-2.8l-13.5-47
		c-4.8-11.5-19.2-15.5-19.2-15.5c-10.4-3.3-22.7-8.8-32.3-3.7l0,0l-4.7,4.3c-14.2,13.2-35.6,14.5-51.3,3.3l-1.8-1.3l-18.6,2.1
		c-9.1,1-17.5,5.3-23.7,12.1L163,283.8l22.3,38.1l22.5-12.7L324,316.6z"/>
	<path style="fill:#D35558;stroke:#004643;stroke-width:1.5507;stroke-miterlimit:10;" d="M327.7,350.6c-2.6,0.5-9.4,1.8-15.8,2.8
		l-4.3-30.7c6.7-0.7,14.4-2.1,17.1-2.6L327.7,350.6z"/>
	<path style="fill:#CCCA1E;stroke:#004643;stroke-width:1.5507;stroke-miterlimit:10;" d="M221.9,323.7v30.4
		c-7.6,1-13.9,2.2-16.4,2.6l1-29.9C208.9,326.2,214.7,324.9,221.9,323.7z"/>
	<path style="fill:#3DA9FC;stroke:#004643;stroke-width:1.6192;stroke-miterlimit:10;" d="M321.8,288.8l3,31.3
		c-2.8,0.5-10.4,1.9-17.1,2.6c-1.2,0.1-2.4,0.2-3.6,0.3c-4.1,0.3-10.4,1.4-17.6,1.9c-6.2,0.5-13.1,0.6-19.9-0.5
		c-2.2-0.4-4.5-0.9-6.7-1.6c-3.9-1.2-8.9-1.6-14.4-1.5c-7.8,0.1-16.3,1.2-23.5,2.5c-7.2,1.2-13,2.5-15.4,3.1l1.3-36.7"/>
	<path style="fill:#3DA9FC;stroke:#004643;stroke-width:1.6192;stroke-miterlimit:10;" d="M390.4,255.4"/>
	<path style="fill:#3DA9FC;stroke:#004643;stroke-width:1.6192;stroke-miterlimit:10;" d="M276.5,256.7"/>
	<path style="fill:#3DA9FC;stroke:#004643;stroke-width:1.6192;stroke-miterlimit:10;" d="M333,405.7H203.8l1.7-49
		c2.5-0.5,8.8-1.6,16.4-2.6c7.3-1,15.9-1.8,23.5-1.7c5.5,0,10.5,0.5,14.3,1.7c2.2,0.7,4.5,1.2,6.8,1.6c7.5,1.3,15.1,1,21.8,0.3
		c6.3-0.6,11.8-1.5,15.6-1.8c2.3-0.2,5.1-0.5,7.9-0.9c6.4-0.9,13.2-2.3,15.8-2.8L333,405.7z"/>
	<g id="topi">
		<path style="fill:#AA3038;stroke:#004643;stroke-width:1.5507;stroke-miterlimit:10;" d="M214.9,49.3c0,0-4.6-17.6-12.1-21.3
			c0,0-3.4,4.3-4.9,6.2c0,0,13.2,10.1,13.6,17.5S214.9,49.3,214.9,49.3z"/>
		<path style="fill:#D35558;stroke:#004643;stroke-width:1.5507;stroke-miterlimit:10;" d="M266.2,31.9
			c6.6,10.1-13.6,25.6-38.3,41.5s-48.3,26-54.9,15.9c-13.8-21.1,7.9-29.1,36.4-43.4C227.1,27.8,255.8,15,266.2,31.9z"/>
	</g>
	<path style="fill:#CCCA1E;stroke:#004643;stroke-width:1.5507;stroke-miterlimit:10;" d="M311.9,353.4c-2.9,0.4-5.6,0.8-7.9,0.9
		c-3.7,0.2-9.2,1.2-15.6,1.8l-1.9-31.2c7.2-0.6,13.4-1.7,17.6-1.9c1.1-0.1,2.3-0.2,3.6-0.3L311.9,353.4z"/>
	<path style="fill:#D35558;stroke:#004643;stroke-width:1.5507;stroke-miterlimit:10;" d="M288.4,356c-6.7,0.6-14.3,0.9-21.8-0.3
		v-31.4c6.8,1.2,13.7,1,19.9,0.5L288.4,356z"/>
	<path style="fill:#CCCA1E;stroke:#004643;stroke-width:1.5507;stroke-miterlimit:10;" d="M266.6,324.4v31.4
		c-2.3-0.4-4.6-0.9-6.8-1.6c-3.8-1.2-8.9-1.7-14.3-1.7v-31.1c5.5-0.1,10.5,0.3,14.4,1.5C262.1,323.5,264.3,324,266.6,324.4z"/>
	<path style="fill:#D35558;stroke:#004643;stroke-width:1.5507;stroke-miterlimit:10;" d="M245.5,321.2v31.1
		c-7.7-0.1-16.2,0.7-23.5,1.7v-30.4C229.2,322.5,237.7,321.3,245.5,321.2z"/>
	<polygon style="fill:#3798E3;" points="323.4,288.8 330.1,313.3 325.8,314.5 	"/>
	<polygon style="fill:#3798E3;" points="185.7,319.6 206.6,291 205.2,308.2 	"/>
	<g id="tangan">
		<g>
			<path style="fill:#F8BB9C;stroke:#004643;stroke-width:1.5507;stroke-miterlimit:10;" d="M184.4,319.9h-18.8
				c-5.7,0-11.1-2-15.3-5.8l-35-30.9c0,0-32.2,5.8-29.7-25.2c1.9-10,4.7-11.2,14.4-15.1c21.7-8.4,26.2,11.7,26.2,11.7l36.7,33.1
				l5.3,4.8l2,3.4L184.4,319.9z"/>
			<polygon style="fill:#F8BB9C;stroke:#004643;stroke-width:1.5507;stroke-miterlimit:10;" points="171.3,295.3 170.4,296
				168.4,292.6 			"/>
				<rect x="98.6" y="210.6" transform="matrix(0.9905 -0.1372 0.1372 0.9905 -33.4421 16.8139)" style="fill:#004643;stroke:#004643;stroke-width:1.5505;stroke-linecap:round;stroke-linejoin:round;stroke-miterlimit:3.9996;" width="13.3" height="80.8"/>
			<g>
				<path style="fill:#F8BB9C;" d="M91.8,255.5c0,0,18.9-3.7,19.4,1.7c0.5,5.4-19.2,5.8-19.2,5.8"/>
				<path style="fill:#004643;" d="M91.8,255.5c3.4-0.9,6.9-1.6,10.3-1.7c2.6-0.1,5.6-0.3,8,1c1.6,0.7,2.2,2.9,1.1,4.3
					c-2.2,2.6-5.8,2.9-8.8,3.6c-3.5,0.5-7,0.6-10.5,0.5c3.5-0.4,6.9-0.9,10.3-1.6c2.1-0.4,11.1-2.6,7.2-5.6
					c-2.2-1.1-4.8-1.1-7.3-1.1C98.9,255,95.4,255.3,91.8,255.5L91.8,255.5z"/>
			</g>
			<g>
				<path style="fill:#F8BB9C;" d="M91.6,248.2c0,0,18.9-3.7,19.4,1.7s-19.2,5.8-19.2,5.8"/>
				<path style="fill:#004643;" d="M91.6,248.2c3.4-0.9,6.9-1.6,10.3-1.7c2.6-0.1,5.6-0.3,8,1c1.6,0.7,2.2,2.9,1.1,4.3
					c-2.2,2.6-5.8,2.9-8.8,3.6c-3.5,0.5-7,0.6-10.5,0.5c3.5-0.4,6.9-0.9,10.3-1.6c2.1-0.4,11.1-2.6,7.2-5.6
					c-2.2-1.1-4.8-1.1-7.3-1.1C98.6,247.6,95.1,247.9,91.6,248.2L91.6,248.2z"/>
			</g>
			<g>
				<path style="fill:#F8BB9C;" d="M93.7,263.5c0,0,18.9-3.7,19.4,1.7c0.5,5.4-19.2,5.8-19.2,5.8"/>
				<path style="fill:#004643;" d="M93.7,263.5c3.4-0.9,6.9-1.6,10.3-1.7c2.6-0.1,5.6-0.3,8,1c1.6,0.7,2.2,2.9,1.1,4.3
					c-2.2,2.6-5.8,2.9-8.8,3.6c-3.5,0.5-7,0.6-10.5,0.5c3.5-0.4,6.9-0.9,10.3-1.6c2.1-0.4,11.1-2.6,7.2-5.6
					c-2.2-1.1-4.8-1.1-7.3-1.1C100.7,262.8,97.2,263.1,93.7,263.5L93.7,263.5z"/>
			</g>
			<g>
				<path style="fill:#F8BB9C;" d="M94.8,271.4c0,0,18.9-3.7,19.4,1.7S95.1,279,95.1,279"/>
				<path style="fill:#004643;" d="M94.8,271.4c3.4-0.9,6.9-1.6,10.3-1.7c2.6-0.1,5.6-0.3,8,1c1.6,0.7,2.2,2.9,1.1,4.3
					c-2.2,2.6-5.8,2.9-8.8,3.6c-3.5,0.5-7,0.6-10.5,0.5c3.5-0.4,6.9-0.9,10.3-1.6c2.1-0.4,11.1-2.6,7.2-5.6
					c-2.2-1.1-4.8-1.1-7.3-1.1C101.8,270.9,98.3,271.1,94.8,271.4L94.8,271.4z"/>
			</g>
			<path style="fill:#F8BB9C;stroke:#004643;stroke-width:1.5507;stroke-miterlimit:10;" d="M117,252.4c0,0-24.1,5.1-24.8,0.5
				c-0.6-4.7,11.8-9.5,20.8-8.9"/>
			<path style="fill:#F8BB9C;stroke:#004643;stroke-width:1.5507;stroke-miterlimit:10;" d="M93.1,211.9c0,0-11.1-1.8-10.3-19.5
				c0.9-17.6,6.8-22.1,7.7-30.7c0.9-8.6-0.6,5.7,7.9,17.4c8.4,11.8,10.9,17,10.1,22.9c-0.7,6-2.1,7.9-2.1,7.9L93.1,211.9z"/>
		</g>
		<path style="fill:#D99882;" d="M176.2,309.7l4.3,7.9c0,0-21.2,4.2-31.3-6l-31.7-29l-1.3-11.5C116.1,271.1,151.1,318.4,176.2,309.7
			z"/>
	</g>
</g>
</svg>
