<svg xmlns="http://www.w3.org/2000/svg" id="Layer_2" data-name="Layer 2" viewBox="0 0 491.57 428.71"><defs><style>.cls-1,.cls-2,.cls-3,.cls-4,.cls-5,.cls-6,.cls-7,.cls-8{stroke:#004643;stroke-width:1.57px}.cls-1,.cls-2,.cls-7,.cls-8{stroke-linecap:round;stroke-linejoin:round}.cls-1,.cls-9{fill:#004643}.cls-2{fill:#f9bc60}.cls-3,.cls-4,.cls-5,.cls-6{stroke-miterlimit:10}.cls-10,.cls-3{fill:#d99882}.cls-11,.cls-4{fill:#f8bb9c}.cls-5{fill:#dea449}.cls-12{fill:#bf8a4a}.cls-6{fill:#37726e}.cls-7{fill:none}.cls-13,.cls-8{fill:#e8e4e6}.cls-14{fill:#d1983d}</style></defs><g id="Layer_1-2" data-name="Layer 1"><g><g id="bor"><rect width="217.91" height="143.45" x=".78" y=".78" class="cls-5" rx="19.18" ry="19.18"/><path d="m209.46,22.75v99.51c0,7.02-5.71,12.74-12.74,12.74H22.75c-7.03,0-12.74-5.72-12.74-12.74V22.75c0-7.02,5.71-12.74,12.74-12.74h173.96c7.03,0,12.74,5.72,12.74,12.74Z" class="cls-6"/></g><g><path d="m490.78,418.61c0,1.03-.2,2.04-.6,3.01-.74,1.85-2.15,3.45-4.01,4.57-1.88,1.14-4.12,1.74-6.42,1.74H169.53c-2.16-.02-4.29-.56-6.09-1.6-1.8-1.02-3.2-2.47-4.03-4.18-.83-1.69-1.03-3.56-.61-5.37.42-1.8,1.47-3.45,3.01-4.75.7-.6,1.49-1.11,2.37-1.52,1.64-.8,3.52-1.22,5.43-1.22h310.14c2.93,0,5.73.99,7.8,2.74,2.07,1.74,3.23,4.1,3.23,6.58Z" class="cls-2"/><path d="m489.09,421.86c-.7,1.49-1.87,2.76-3.44,3.7-1.7,1.03-3.8,1.6-5.89,1.6H169.54c-2-.02-3.92-.52-5.57-1.46-1.67-.97-2.94-2.29-3.7-3.84-.76-1.57-.94-3.27-.56-4.92.22-.96.65-1.86,1.24-2.71.11.97.39,1.9.83,2.79.87,1.85,2.39,3.41,4.35,4.54,1.96,1.11,4.24,1.71,6.63,1.72h310.2c2.18,0,4.28-.49,6.13-1.43Z" class="cls-12"/></g><path id="leher" d="m356.38,270.87c-4.44.91-58.43,1.42-64.06.33,0,0,.38-75.5.2-77.79h.02c8.82-3.76,54.82-3.77,63.57-.05.03.02.08.03.11.05-.02.19-.03.36-.03.55-.03.31-.09,74.64.19,76.91Z" class="cls-3"/><g id="kepala"><path d="m405.17,127.56s-.02.09-.03.14c-.53,2.54-1.13,4.89-1.75,7.08-1.72,6.45-4.13,12.7-7.19,18.62,1-6.91,1.46-13.77,1.35-20.35.02-1.64-.03-3.29-.14-4.93-.67-11.37-3.92-22.27-7.19-33.22.66-4.32,2.62-12.03,1.97-18.09-7.86,1.68-4.07-14.17-11.37-16.96-1.68-8.83-23.63-18.29-35.3-16.02-5.95-.02-14.86,6.05-19.67,5.22-3.49-1.19-21.47-12.76-40.11,6.42-3.73-.14-2.52-5.12-3.54-7.06-.47-.34-2.62,4.2-2.82,4.34-8.99,22.87-28.54,11.26-19.62,34.74-5.5,12.76-7.94,27.99-7.72,43.74.13,7.99.94,16.12,2.38,24.14h-.41l-.05-.05c-1.63-1.8-7.63-9.49-10.89-27.08v-.05h-.02c-1.85-10.99-2.44-22.19-1.79-33.33,1.41-29.3,13.08-45.81,18.83-48.69,5.76-2.88,3.2-7.08,4.56-10.01,1.36-2.91,5.2-2.18,10.27-7.69,5.06-5.51,22.22-8.55,22.22-8.55,12.83-7.69,40.44-6.12,48.29-2.91,7.85,3.21,1.22,2.83,13.14,5.84,11.92,2.99,19.95,7.89,21.27,11.17,1.32,3.29,8.44,17.42,16.62,21.32,8.16,3.9,8.94,18.56,8.94,18.56,3.51,17.73,3.43,35.98-.23,53.67Z" class="cls-1"/><g><path d="m397.54,133.06c.11,6.58-.34,13.44-1.35,20.35-1.28,8.82-3.48,17.73-6.53,26.25-.61,1.72-1.27,3.45-1.97,5.14-.03.06-.06.13-.08.2-8.76,22.57-23.52,39.88-41.3,47.66-6.7,2.96-13.86,4.54-21.27,4.54-31.31,0-57.9-28.36-67.41-67.75-.02-.02,0-.03,0-.03-1.3-4.6-2.38-9.32-3.23-14.05-1.44-8.02-2.26-16.15-2.38-24.14-.05-3.92.06-7.78.34-11.61.83-11.56,3.24-22.54,7.38-32.14-8.91-23.48,10.63-11.87,19.62-34.74.2-.14,2.35-4.68,2.82-4.34.91,1.74.05,5.9,2.52,6.86.3.13.63.19,1.02.2,18.64-19.19,36.62-7.61,40.11-6.42,4.81.83,13.72-5.23,19.67-5.22,1.08-.22,2.26-.33,3.49-.34,12.08-.17,30.29,8.35,31.81,16.37,7.3,2.79,3.51,18.64,11.37,16.96.64,6.06-1.32,13.77-1.97,18.09,3.27,10.95,6.52,21.85,7.19,33.22.11,1.64.16,3.29.14,4.93Z" class="cls-4"/><path d="m396.63,140.84c-1.64-15.47-6.89-34.39-9.52-43.23-.14-.41-.17-.89-.11-1.35.16-1.02.38-2.19.63-3.52.58-3.09,1.3-6.92,1.43-10.46l.02-.56-.52-.2c-3.66-1.41-4.86-6.53-5.58-9.65-.83-3.71-1.61-6.59-3.38-7.27-1-.38-1.75-1.28-1.96-2.33-.34-1.82-2.51-4.23-5.7-6.37-8.18-7.44-18.56-9.26-27.49-9.26-2.82,0-5.48.19-7.88.42,3.16-1.24,6.37-2.44,8.91-2.44h.03l.16-.02c1-.2,2.13-.31,3.35-.33h.34c11.56,0,29.23,8.02,30.68,15.72l.08.44.41.16c3.07,1.16,3.96,5.12,4.84,8.93.96,4.2,1.94,8.55,6.11,8.19.28,4.43-.7,9.74-1.44,13.67-.23,1.27-.45,2.43-.6,3.4l-.03.19.05.16c3.2,10.67,6.48,21.69,7.16,33.05.11,1.63.16,3.26.14,4.89v.02c.05,2.55,0,5.14-.13,7.77Z" class="cls-10"/><path d="m342.54,233.33c-5.67,2.05-11.53,3.09-17.49,3.09-30.07,0-56.78-26.81-66.55-66.75l.02-.02-.13-.45c-1.28-4.56-2.37-9.26-3.21-13.97-1.44-8.05-2.24-16.13-2.37-24.01-.02-1.93,0-3.85.05-5.75,7.13,53.86,19.06,66.83,30.32,81.85,18.26,23.38,37.14,29.1,59.36,26.01Z" class="cls-10"/></g><path d="m289.53,113.5c-6.97,0-12.64,9.8-12.64,21.84s5.67,21.85,12.64,21.85,12.65-9.8,12.65-21.85-5.67-21.84-12.65-21.84Z" class="cls-9"/><path d="m297.41,127c0,.86-.26,1.7-.73,2.42-.48.72-1.16,1.27-1.95,1.6-.8.33-1.67.42-2.52.25s-1.62-.58-2.23-1.19c-.61-.61-1.02-1.38-1.19-2.23-.17-.85-.08-1.72.25-2.52s.89-1.48,1.61-1.95c.72-.48,1.56-.73,2.42-.73,1.16,0,2.26.46,3.08,1.27s1.28,1.92,1.28,3.08Z" class="cls-13"/><path d="m360.5,113.5c-6.98,0-12.64,9.8-12.64,21.84s5.66,21.85,12.64,21.85,12.64-9.8,12.64-21.85-5.63-21.84-12.64-21.84Z" class="cls-9"/><path d="m361.45,127c0,.86-.26,1.7-.73,2.42s-1.16,1.27-1.96,1.6c-.8.33-1.67.42-2.52.25-.85-.17-1.62-.58-2.23-1.19-.61-.61-1.02-1.38-1.19-2.23-.17-.85-.08-1.72.25-2.52.33-.8.89-1.48,1.61-1.95.72-.48,1.56-.73,2.42-.73,1.16,0,2.26.46,3.08,1.27.82.82,1.28,1.92,1.28,3.08Z" class="cls-13"/><path d="m315.51,106.58c-.65-1.65-1.69-3.12-3.03-4.29-1.34-1.17-2.94-2-4.66-2.42-5.85-1.34-8.81-6.66-18.32-8.11-3.6-.57-7.25-.77-10.9-.59l-.18.56c-3.22.86-6.07,2.74-8.14,5.35,0,0-6.01,2.01-6.76,10.66,0,0,5.11-4.1,14.77-5.74l-.85,1.41s12.68-4.23,23.44,1.79c9.54,5.25,14.62,1.37,14.62,1.37Z" class="cls-9"/><path d="m387.11,116.97c-6.06-6.61-14.33-10.8-23.25-11.79,0,0-3.43,2.8-9.2.73,0,0-10.15,5.21-14.11,2.08-.19-1.16-.02-2.36.49-3.42.51-1.06,1.34-1.94,2.38-2.51,2.63-.02,5.17-.92,7.22-2.56,3.95-2.85,22.17-6.66,27.15,2.3,0,0,8.32,1.4,9.32,15.16Z" class="cls-9"/><path d="m317.9,158.97l8.49,5.44c.83.53,1.79.8,2.77.78.98-.02,1.93-.32,2.74-.87l7.82-5.39" class="cls-7"/><path d="m360.91,180.24c-.09,15.87-15,28.72-33.38,28.72s-33.28-12.86-33.38-28.72c9.37,3.49,20.91,5.56,33.38,5.56s24.01-2.07,33.38-5.56Z" class="cls-8"/><path d="m297.41,192.48c8.74,2.82,19.08,4.45,30.13,4.45s21.39-1.63,30.13-4.45h.02" class="cls-7"/><g><path d="m259.98,179.33c-3.16,1.68-10.9,4.24-14.49-7.8,0,0-1.13-.27-2.4-1.72-1.74-1.93-3.76-5.92-3.87-14.11-.19-14.36-5.98-20.67-5.45-24.31.34-2.3,1.52-4.42,3.92-4.71,1.36-.19,3.12.22,5.36,1.52h.02v.05c3.26,17.59,9.26,25.28,10.89,27.08l.05.05h.41c1.28,7.17,3.1,14.27,5.37,21.08-.16,1.03-.11,2,.2,2.88Z" class="cls-4"/><path d="m259.06,178.92c-1.69.78-4.42,1.64-7,.56-2.57-1.08-4.51-3.84-5.81-8.18l-.14-.42-.42-.11s-.5-.14-1.17-.69c.11-.05.23-.08.36-.11,2.99-.78,4.67.41,5.89,1.27.78.55,1.5,1.08,2.35.83.83-.25,1.28-1.13,1.61-1.96,1.83-4.54-1.49-9.77-7.02-18.45l-1.03-1.63c-4.23-6.69-6.91-17.45-8.02-22.62,1.07.06,2.3.5,3.71,1.27,3.29,17.54,9.26,25.22,11.09,27.22l.22.23h.08c1.27,6.88,3.02,13.72,5.23,20.38-.11.86-.09,1.66.08,2.4Z" class="cls-10"/></g><g><path d="m407.86,155.71c-.2,14.36-6.28,15.83-6.28,15.83-.22.74-.45,1.43-.72,2.07v.02c-2.99,7.56-7.93,7.74-11.36,6.69.08-.22.14-.44.16-.66,3.05-8.52,5.25-17.43,6.53-26.25,3.05-5.92,5.47-12.17,7.19-18.62.33-1.14.64-2.33.94-3.57.3-1.13.56-2.3.81-3.51.03-.05.05-.09.06-.14,5.29-2.51,7.63.6,8.08,3.84.61,3.62-5.23,9.93-5.42,24.31Z" class="cls-4"/><path d="m412.52,131.52c.19,1.16-.47,2.83-1.38,5.15-.78,1.97-1.77,4.46-2.57,7.6-.8,3.12-1.43,6.88-1.49,11.42-.16,10.95-3.81,14.06-5.17,14.85.38-2.16,1.17-4.09,2.29-5.5,3.07-3.9,2.55-8.13,1.99-12.59-.13-1.07-.27-2.15-.34-3.24-.22-2.66.67-5.58,1.53-8.41.94-3.04,1.82-5.94,1.36-8.49-.17-1-.61-1.71-1.32-2.08-.36-.19-.77-.28-1.22-.28-.25,0-.5.03-.78.08.16-.63.3-1.25.42-1.9,1.86-.81,3.38-.91,4.53-.3,1.11.6,1.9,1.94,2.15,3.7Z" class="cls-10"/></g></g><polygon points="425.53 303.73 397.71 390.12 377.3 324.74 386.86 300.84 425.53 303.73" class="cls-3"/><g id="tangan"><g><path d="m228.91,266.75l-68.53-66.68s-35.59,6.36-32.78-27.86c2.11-11.15,5.2-12.43,15.99-16.62,24.05-9.33,29.01,12.92,29.01,12.92l90.93,80.48-34.62,17.76Z" class="cls-4"/><rect width="4.08" height="168.82" x="141.69" y="57.38" class="cls-1" transform="translate(-18.09 21.06) rotate(-7.89)"/><g><path d="m137.44,169.41s20.92-4.1,21.41,1.89-21.16,6.47-21.16,6.47" class="cls-11"/><path d="m137.44,169.41c3.74-.99,7.56-1.7,11.45-1.95,2.96-.12,6.13-.3,8.9,1.14,1.72.85,2.44,3.21,1.21,4.77-3.97,4.59-15.58,4.54-21.32,4.41,3.84-.44,7.65-.97,11.39-1.72,2.7-.62,5.54-1.2,7.82-2.75,1.4-.93,1.66-2.53.13-3.39-2.4-1.25-5.37-1.17-8.08-1.24-3.81.04-7.65.34-11.49.74h0Z" class="cls-9"/></g><g><path d="m137.17,161.23s20.92-4.1,21.41,1.89c.49,5.99-21.16,6.47-21.16,6.47" class="cls-11"/><path d="m137.17,161.23c3.74-.99,7.56-1.7,11.45-1.95,2.96-.12,6.13-.3,8.9,1.14,1.72.85,2.44,3.21,1.21,4.77-3.97,4.59-15.58,4.54-21.32,4.41,3.84-.44,7.65-.97,11.39-1.72,2.7-.62,5.54-1.2,7.82-2.75,1.4-.93,1.66-2.53.13-3.39-2.4-1.25-5.37-1.17-8.08-1.24-3.81.04-7.65.34-11.49.74h0Z" class="cls-9"/></g><g><path d="m139.51,178.13s20.92-4.1,21.41,1.89c.49,5.99-21.16,6.47-21.16,6.47" class="cls-11"/><path d="m139.51,178.13c3.74-.99,7.56-1.7,11.45-1.95,2.96-.12,6.13-.3,8.9,1.14,1.72.85,2.44,3.21,1.21,4.77-3.97,4.59-15.58,4.54-21.32,4.41,3.84-.44,7.65-.97,11.39-1.72,2.7-.62,5.54-1.2,7.82-2.75,1.4-.93,1.66-2.53.13-3.39-2.4-1.25-5.37-1.17-8.08-1.24-3.81.04-7.65.34-11.49.74h0Z" class="cls-9"/></g><g><path d="m140.73,186.97s20.92-4.1,21.41,1.89c.49,5.99-21.16,6.47-21.16,6.47" class="cls-11"/><path d="m140.73,186.97c3.74-.99,7.56-1.7,11.45-1.95,2.96-.12,6.13-.3,8.9,1.14,1.72.85,2.44,3.21,1.21,4.77-3.97,4.59-15.58,4.54-21.32,4.41,3.84-.44,7.65-.97,11.39-1.72,2.7-.62,5.54-1.2,7.82-2.75,1.4-.93,1.66-2.53.13-3.39-2.4-1.25-5.37-1.17-8.08-1.24-3.81.04-7.65.34-11.49.74h0Z" class="cls-9"/></g><path d="m165.25,165.9s-26.65,5.63-27.37.48c-.71-5.16,5.76-10.4,15.8-9.73" class="cls-4"/><g><path d="m165.25,165.9s-26.65,5.63-27.37.48c-.71-5.16,5.76-10.4,15.8-9.73" class="cls-11"/><path d="m165.25,165.9c-4.33,1.25-27.21,6.83-28.13.44-.37-3.18,1.82-6.03,4.4-7.58,3.71-2.25,8.11-2.65,12.16-2.11-4.09.06-8.23.91-11.49,3.13-2.07,1.46-3.87,3.75-3.56,6.39,0,.14.04.16.05.22.01.06.02.12.08.17,3.23,2.99,21.35-.21,26.48-.65h0Z" class="cls-9"/></g></g><path d="m330.48,323.79c-19.36,3.86-41.74,4.29-41.74,4.29l-81.72-74.16,20.45-43.6,46.06,37.35,18.92-3.61,31.91,22.76" class="cls-5"/></g><path d="m324.35,266.82l32.03-29.62h0c10.74-5.52,24.24.56,35.77,4.15,0,0,15.97,4.48,21.18,17.21l14.98,51.99-36.4,3.16-34.22-9.05c3.54,10.09-10.74,15.85-27.21,19.13" class="cls-5"/><path d="m356.38,231.2s11.95-.09,21.46,2.59l-44.22,34.56-9.26-1.53,32.03-35.62Z" class="cls-5"/><path d="m324.35,266.82l-32.03-29.62s-9.77-3.44-16.62,6.87c0,0,17.07,11.04,25.22,15.46,8.15,4.42,14.61,10.44,15.12,10.27s8.31-2.97,8.31-2.97Z" class="cls-5"/><polygon points="397.66 312.24 390.33 291.6 392.54 312.69 397.66 312.24" class="cls-14"/><polygon points="207.89 253.74 262.23 291.67 262.23 302.08 207.89 253.74" class="cls-14"/><polygon points="314.42 409.28 341.16 409.42 324.83 380.63 307.79 409.42 314.42 409.28" class="cls-5"/><polyline points="388.48 280.96 401.91 409.28 333.95 409.28 325.3 385.49 314.42 409.28 259.05 409.28 263.99 279.95" class="cls-5"/><line x1="325.3" x2="324.35" y1="385.49" y2="266.82" class="cls-5"/><g><circle cx="324.35" cy="271.1" r="2.75" class="cls-9"/><circle cx="324.35" cy="296.57" r="2.75" class="cls-9"/><circle cx="324.35" cy="322.05" r="2.75" class="cls-9"/><circle cx="324.35" cy="347.52" r="2.75" class="cls-9"/><circle cx="324.35" cy="373" r="2.75" class="cls-9"/></g></g></g></svg>