<svg id="Layer_2" data-name="Layer 2" xmlns="http://www.w3.org/2000/svg" viewBox="0 0 321.32 415.51">
  <defs>
    <style>
      .cls-1 {
        fill: #bfbfbf;
      }
      .cls-1, .cls-2, .cls-3, .cls-4, .cls-5, .cls-6, .cls-7, .cls-8, .cls-9, .cls-10, .cls-11 {
        stroke: #004643;
        stroke-width: 1.51px;
      }
      .cls-1, .cls-2, .cls-4, .cls-5, .cls-6, .cls-9, .cls-11 {
        stroke-miterlimit: 10;
      }
      .cls-12, .cls-8 {
        fill: #004643;
      }
      .cls-2 {
        fill: #95b3a9;
      }
      .cls-3, .cls-7, .cls-8, .cls-9, .cls-10 {
        stroke-linecap: round;
      }
      .cls-3, .cls-7, .cls-8, .cls-10 {
        stroke-linejoin: round;
      }
      .cls-3, .cls-9 {
        fill: none;
      }
      .cls-4, .cls-7, .cls-13 {
        fill: #e8e4e6;
      }
      .cls-5 {
        fill: #abd1c6;
      }
      .cls-6 {
        fill: #f8bb9c;
      }
      .cls-14 {
        fill: #bf8a4a;
      }
      .cls-10 {
        fill: #f9bc60;
      }
      .cls-15 {
        fill: #93b9ae;
      }
      .cls-16, .cls-11 {
        fill: #d99882;
      }
    </style>
  </defs>
  <g id="Layer_1-2" data-name="Layer 1">
    <g>
      <g>
        <path class="cls-5" d="m287.25,346.95c-6.58,22.16-31.71,30.74-51.34,38.53-.22,4.02-2.02,7.71-4.69,10.74H90.08c-2.67-3.02-4.47-6.71-4.69-10.74-19.63-7.79-44.76-16.37-51.34-38.53-4.78-48.98,15.67-105.76,62.58-127.61-22.95-23.63,23.67-39.48,44.63-42.2,0,.02.02,0,.02,0,22.75-7.41,112.59,7.69,83.4,42.2,46.64,21.59,67.45,78.63,62.58,127.61Z"/>
        <path class="cls-15" d="m232.85,224.69c-18.47,12.64-45.92,8.17-45.92,8.17,0,0,18.87-.72,37.74-12.63,3.12,1.45,5.29,2.71,8.17,4.46Z"/>
        <path class="cls-15" d="m211.59,251.19s47.09,56.03,46.43,80.88c0,0-13.4-7.12-33.35-7.15,0,0,10.14-18.35-13.08-73.72Z"/>
        <path class="cls-15" d="m88.21,224.69c18.47,12.64,45.92,8.17,45.92,8.17,0,0-18.87-.72-37.74-12.63-3.12,1.45-5.29,2.71-8.17,4.46Z"/>
        <path class="cls-15" d="m109.47,251.19s-47.09,56.03-46.43,80.88c0,0,13.4-7.12,33.35-7.15,0,0-10.14-18.35,13.08-73.72Z"/>
        <path class="cls-2" d="m219.2,199.98c0,6.62-10.72,12.42-26.92,15.76h-.02c-5.5,1.13-11.63,1.98-18.18,2.47l-10.15,14.66-9.88-14.28c-1.92-.06-3.78-.17-5.64-.29-6.12-.41-11.88-1.13-17.11-2.11-.24-.05-.48-.09-.71-.14h-.02c-17.07-3.27-28.48-9.24-28.48-16.07,0-10.34,26.22-18.73,58.55-18.73s58.55,8.38,58.55,18.73Z"/>
        <g>
          <path class="cls-9" d="m224.68,219.34s-16.37,12.14-37.75,13.38"/>
          <path class="cls-9" d="m211.59,251.19s19.86,43.2,13.08,73.72"/>
          <path class="cls-9" d="m196.64,303.08s21.93,37.06,14.96,83.28c0,0,16.05,2.38,24.32-.88"/>
          <path class="cls-9" d="m261.73,334.47s-20.24-14.39-55.25-7.85"/>
          <path class="cls-9" d="m96.63,219.34s16.37,12.14,37.75,13.38"/>
          <path class="cls-9" d="m109.71,251.19s-19.86,43.2-13.08,73.72"/>
          <path class="cls-9" d="m124.67,303.08s-21.93,37.06-14.96,83.28c0,0-11.05,1.84-24.32-.88"/>
          <path class="cls-9" d="m59.57,334.47s20.24-14.39,55.25-7.85"/>
        </g>
        <path class="cls-13" d="m234.82,230.13c9.7,4.66,16.83,13.09,23.17,21.53,13.48,18.17,21.06,40.26,22.96,62.71.66,9.19,1.02,18.52-.69,27.61-.38-9.17.04-18.31-1.14-27.43-2.52-21.93-10.58-43.23-23.6-61.09-6.14-8.47-13.51-15.73-20.7-23.33h0Z"/>
        <path class="cls-13" d="m192.47,305.67c3.63,1.37,5.17,4.79,6.89,7.89,3.99,7.74,5.99,16.28,7.11,24.86.19,1.71.44,3.41.02,5.19-.93-1.6-1.14-3.27-1.5-4.93-1.12-4.94-2.56-9.82-4.37-14.53-1.19-3.13-2.54-6.2-4.03-9.17-1.51-3.16-3.53-5.68-4.12-9.31h0Z"/>
        <path class="cls-13" d="m210.93,329.68c3.81-2.52,8.11-2.33,12.24-2.54,10.39-.21,20.99,1.44,30.52,5.68,1.93.76,3.78,1.8,5.31,3.28-2.18-.27-3.91-1.3-5.87-1.89-5.68-2.05-11.78-3.09-17.79-3.59-4.03-.34-8.07-.42-12.12-.38-4.18-.03-8.16.74-12.3-.56h0Z"/>
      </g>
      <g>
        <path class="cls-10" d="m320.57,405.78c0,1-.2,1.96-.57,2.9-.71,1.78-2.07,3.32-3.86,4.4-1.81,1.1-3.97,1.67-6.18,1.67H11.29c-2.08-.02-4.13-.54-5.87-1.54-1.73-.98-3.08-2.38-3.88-4.03-.8-1.63-1-3.42-.59-5.17.41-1.73,1.42-3.32,2.9-4.57.68-.57,1.43-1.07,2.28-1.46,1.58-.77,3.39-1.18,5.23-1.18h298.59c2.82,0,5.52.95,7.51,2.64,1.99,1.67,3.11,3.95,3.11,6.33Z"/>
        <path class="cls-14" d="m318.93,408.91c-.68,1.43-1.8,2.65-3.31,3.56-1.64,1-3.65,1.54-5.67,1.54H11.29c-1.92-.02-3.78-.5-5.36-1.4-1.6-.93-2.83-2.2-3.56-3.69-.73-1.51-.91-3.15-.53-4.73.21-.92.62-1.79,1.19-2.61.11.93.37,1.82.8,2.68.84,1.78,2.3,3.29,4.19,4.37,1.89,1.07,4.08,1.64,6.38,1.66h298.64c2.1,0,4.12-.47,5.9-1.37Z"/>
      </g>
      <path class="cls-11" d="m192.27,215.73c-4.27.88-8.92,1.58-13.86,2.09-2.77.28-5.29,1.77-6.88,4.06l-7.6,10.98-7.19-10.39c-1.67-2.42-4.37-3.93-7.31-4.11-.34-.02-.68-.04-1.02-.06-6.4-.43-12.4-1.2-17.82-2.25h0c.41-3.21.36-40.71.2-42.91h.02c8.49-3.62,52.78-3.63,61.2-.05.03.02.08.03.11.05-.02.18-.03.35-.03.53-.03.3-.09,39.88.18,42.06Z"/>
      <g id="kepala">
        <path class="cls-8" d="m239.25,109.74s-.02.09-.03.14c-.51,2.44-1.09,4.7-1.69,6.82-1.66,6.21-3.98,12.23-6.92,17.93.97-6.65,1.4-13.25,1.3-19.59.02-1.58-.03-3.17-.14-4.75-.65-10.95-3.77-21.44-6.92-31.98.63-4.16,2.52-11.58,1.9-17.42-7.57,1.61-3.92-13.65-10.95-16.33-1.61-8.5-22.75-17.61-33.99-15.43-5.73-.02-14.31,5.82-18.94,5.02-3.36-1.15-20.67-12.29-38.62,6.18-3.59-.14-2.43-4.93-3.41-6.8-.45-.33-2.52,4.04-2.71,4.18-8.66,22.01-27.47,10.84-18.89,33.44-5.29,12.29-7.64,26.95-7.43,42.11.12,7.69.9,15.52,2.29,23.24h-.39l-.05-.05c-1.57-1.73-7.34-9.14-10.48-26.07v-.05h-.02c-1.78-10.59-2.35-21.37-1.72-32.09,1.36-28.21,12.59-44.1,18.12-46.88,5.55-2.77,3.08-6.82,4.39-9.64,1.31-2.8,5.01-2.1,9.89-7.4,4.87-5.31,21.4-8.23,21.4-8.23,12.35-7.4,38.93-5.9,46.49-2.8,7.55,3.09,1.18,2.73,12.65,5.62,11.47,2.88,19.21,7.6,20.48,10.75,1.27,3.17,8.13,16.77,16,20.52,7.86,3.75,8.61,17.87,8.61,17.87,3.38,17.07,3.3,34.64-.23,51.67Z"/>
        <g>
          <path class="cls-6" d="m231.9,115.03c.11,6.33-.33,12.94-1.3,19.59-1.24,8.49-3.35,17.07-6.29,25.27-.59,1.66-1.22,3.32-1.9,4.95-.03.06-.06.12-.08.2-8.43,21.73-22.65,38.39-39.76,45.88-6.45,2.85-13.34,4.37-20.48,4.37-30.14,0-55.75-27.31-64.9-65.23-.02-.02,0-.03,0-.03-1.25-4.43-2.29-8.97-3.11-13.53-1.39-7.72-2.17-15.55-2.29-23.24-.05-3.77.06-7.49.33-11.17.8-11.13,3.12-21.7,7.1-30.94-8.58-22.6,10.24-11.43,18.89-33.44.2-.14,2.26-4.51,2.71-4.18.87,1.67.05,5.68,2.43,6.6.29.12.6.18.98.2,17.94-18.47,35.25-7.33,38.62-6.18,4.63.8,13.21-5.04,18.94-5.02,1.04-.21,2.17-.32,3.36-.33,11.63-.17,29.16,8.04,30.62,15.76,7.03,2.68,3.38,17.94,10.95,16.33.62,5.84-1.27,13.25-1.9,17.42,3.15,10.54,6.27,21.03,6.92,31.98.11,1.58.15,3.17.14,4.75Z"/>
          <path class="cls-16" d="m231.03,122.53c-1.58-14.9-6.63-33.11-9.17-41.62-.14-.39-.17-.86-.11-1.3.15-.98.36-2.11.6-3.39.56-2.97,1.25-6.66,1.37-10.07l.02-.54-.5-.2c-3.53-1.36-4.67-6.29-5.37-9.29-.8-3.57-1.55-6.35-3.26-7-.97-.36-1.69-1.24-1.88-2.25-.33-1.75-2.41-4.07-5.49-6.14-7.87-7.16-17.87-8.91-26.46-8.91-2.71,0-5.28.18-7.58.41,3.05-1.19,6.14-2.35,8.58-2.35h.03l.15-.02c.97-.2,2.05-.3,3.23-.32h.33c11.13,0,28.14,7.72,29.54,15.14l.08.42.39.15c2.96,1.12,3.81,4.93,4.66,8.59.92,4.04,1.87,8.23,5.88,7.89.27,4.27-.68,9.38-1.39,13.16-.23,1.22-.44,2.34-.57,3.27l-.03.18.05.15c3.08,10.27,6.24,20.88,6.89,31.82.11,1.57.15,3.14.14,4.7v.02c.05,2.46,0,4.95-.12,7.48Z"/>
          <path class="cls-16" d="m178.95,211.57c-5.46,1.98-11.1,2.97-16.84,2.97-28.95,0-54.66-25.81-64.07-64.26l.02-.02-.12-.44c-1.24-4.39-2.28-8.91-3.09-13.45-1.39-7.75-2.16-15.53-2.28-23.12-.02-1.85,0-3.71.05-5.53,6.86,51.86,18.35,64.34,29.19,78.8,17.58,22.5,35.76,28.02,57.15,25.05Z"/>
        </g>
        <path class="cls-12" d="m127.91,96.2c-6.71,0-12.17,9.43-12.17,21.02s5.46,21.03,12.17,21.03,12.18-9.43,12.18-21.03-5.45-21.02-12.18-21.02Z"/>
        <path class="cls-13" d="m135.51,109.2c0,.83-.25,1.64-.71,2.33-.46.69-1.12,1.23-1.88,1.54-.77.32-1.61.4-2.42.24s-1.56-.56-2.15-1.15c-.59-.59-.99-1.33-1.15-2.15-.16-.81-.08-1.66.24-2.42s.85-1.42,1.55-1.88c.69-.46,1.5-.71,2.33-.71,1.11,0,2.18.44,2.97,1.23s1.23,1.85,1.23,2.96Z"/>
        <path class="cls-12" d="m196.24,96.2c-6.72,0-12.17,9.43-12.17,21.02s5.44,21.03,12.17,21.03,12.17-9.43,12.17-21.03-5.42-21.02-12.17-21.02Z"/>
        <path class="cls-13" d="m197.15,109.2c0,.83-.25,1.64-.71,2.33s-1.12,1.23-1.88,1.54c-.77.32-1.61.4-2.42.24-.81-.16-1.56-.56-2.15-1.15-.59-.59-.99-1.33-1.15-2.15-.16-.81-.08-1.66.24-2.42.32-.77.85-1.42,1.55-1.88.69-.46,1.5-.71,2.33-.71,1.11,0,2.18.44,2.97,1.23.79.79,1.23,1.85,1.23,2.96Z"/>
        <path class="cls-12" d="m152.93,89.54c-.63-1.59-1.63-3.01-2.92-4.13-1.29-1.12-2.83-1.92-4.49-2.33-5.63-1.29-8.49-6.41-17.63-7.81-3.47-.55-6.98-.74-10.49-.57l-.18.54c-3.1.83-5.85,2.64-7.83,5.16,0,0-5.79,1.94-6.5,10.26,0,0,4.92-3.95,14.22-5.52l-.82,1.36s12.21-4.08,22.56,1.72c9.19,5.05,14.08,1.32,14.08,1.32Z"/>
        <path class="cls-12" d="m221.86,99.55c-5.84-6.37-13.79-10.4-22.38-11.35,0,0-3.31,2.69-8.85.7,0,0-9.78,5.02-13.58,2-.19-1.12-.02-2.27.47-3.29.49-1.02,1.29-1.86,2.29-2.41,2.53-.02,4.98-.88,6.95-2.46,3.81-2.75,21.35-6.41,26.14,2.21,0,0,8.01,1.35,8.97,14.6Z"/>
        <path class="cls-3" d="m155.23,139.98l8.17,5.24c.8.51,1.72.77,2.67.76.94-.02,1.86-.31,2.64-.84l7.53-5.19"/>
        <path class="cls-7" d="m196.64,160.46c-.09,15.27-14.45,27.65-32.13,27.65s-32.04-12.38-32.13-27.65c9.02,3.36,20.13,5.35,32.13,5.35s23.12-1.99,32.13-5.35Z"/>
        <path class="cls-3" d="m135.5,172.24c8.41,2.71,18.37,4.28,29.01,4.28s20.6-1.57,29.01-4.28h.02"/>
        <g>
          <path class="cls-6" d="m99.47,159.58c-3.05,1.61-10.49,4.09-13.95-7.51,0,0-1.09-.26-2.31-1.66-1.67-1.85-3.62-5.7-3.72-13.59-.18-13.83-5.76-19.9-5.25-23.4.33-2.22,1.46-4.25,3.77-4.54,1.31-.18,3,.21,5.16,1.46h.02v.05c3.14,16.93,8.91,24.34,10.48,26.07l.05.05h.39c1.24,6.91,2.99,13.74,5.17,20.3-.15,1-.11,1.93.2,2.77Z"/>
          <path class="cls-16" d="m98.58,159.18c-1.63.75-4.25,1.58-6.74.54-2.47-1.04-4.34-3.69-5.59-7.87l-.14-.41-.41-.11s-.48-.14-1.13-.66c.11-.05.23-.08.35-.11,2.88-.75,4.49.39,5.67,1.22.75.53,1.45,1.04,2.26.8.8-.24,1.24-1.09,1.55-1.88,1.76-4.37-1.43-9.41-6.76-17.76l-1-1.57c-4.07-6.44-6.65-16.8-7.72-21.77,1.03.06,2.22.48,3.57,1.22,3.17,16.89,8.91,24.28,10.68,26.21l.21.23h.08c1.22,6.62,2.91,13.21,5.04,19.62-.11.83-.09,1.6.08,2.31Z"/>
        </g>
        <g>
          <path class="cls-6" d="m241.84,136.84c-.2,13.83-6.05,15.24-6.05,15.24-.21.71-.44,1.37-.69,1.99v.02c-2.88,7.28-7.63,7.45-10.93,6.44.08-.21.14-.42.15-.63,2.94-8.2,5.05-16.78,6.29-25.27,2.94-5.7,5.26-11.72,6.92-17.93.32-1.1.62-2.25.9-3.44.29-1.09.54-2.22.78-3.38.03-.05.05-.09.06-.14,5.1-2.41,7.34.57,7.78,3.69.59,3.48-5.04,9.56-5.22,23.4Z"/>
          <path class="cls-16" d="m246.32,113.56c.18,1.12-.45,2.73-1.33,4.96-.75,1.9-1.7,4.3-2.47,7.31-.77,3-1.37,6.62-1.43,10.99-.15,10.54-3.66,13.54-4.98,14.29.36-2.08,1.13-3.94,2.2-5.29,2.96-3.75,2.46-7.83,1.92-12.12-.12-1.03-.26-2.07-.33-3.12-.21-2.56.65-5.37,1.48-8.1.9-2.93,1.75-5.71,1.31-8.17-.17-.97-.59-1.64-1.27-2.01-.35-.18-.74-.27-1.18-.27-.24,0-.48.03-.75.08.15-.6.29-1.21.41-1.82,1.79-.78,3.26-.87,4.36-.29,1.07.57,1.82,1.87,2.07,3.56Z"/>
        </g>
      </g>
      <g>
        <path class="cls-4" d="m255.72,287.7H75.75c-3.12,0-5.56,2.65-5.32,5.76l7.24,89.95c.22,2.76,2.53,4.9,5.32,4.9h165.5c2.79,0,5.1-2.14,5.32-4.9l7.24-89.95c.24-3.11-2.2-5.76-5.32-5.76Z"/>
        <path class="cls-1" d="m252.25,389.48c-.72-.72-1.71-1.16-2.81-1.16H82.03c-1.1,0-2.09.44-2.81,1.16-.71.72-1.16,1.71-1.16,2.81,0,2.19,1.79,3.97,3.97,3.97h167.4c2.19,0,3.97-1.79,3.97-3.97,0-1.1-.45-2.09-1.16-2.81Z"/>
      </g>
      <circle class="cls-5" cx="164.51" cy="338.01" r="8.7"/>
    </g>
  </g>
</svg>
