<svg version="1.1" id="Layer_1" xmlns="http://www.w3.org/2000/svg" xmlns:xlink="http://www.w3.org/1999/xlink" x="0px" y="0px"
	 viewBox="0 0 491.6 428.8" style="enable-background:new 0 0 491.6 428.8;" xml:space="preserve">
<g>
	<g>
		<path style="fill:#ABD1C6;stroke:#004643;stroke-width:1.5079;stroke-miterlimit:10;" d="M372.4,359.3
			c-6.6,22.2-31.7,30.7-51.3,38.5c-0.2,4-2,7.7-4.7,10.7H175.3c-2.7-3-4.5-6.7-4.7-10.7c-19.6-7.8-44.8-16.4-51.3-38.5
			c-4.8-49,15.7-105.8,62.6-127.6c-22.9-23.6,23.7-39.5,44.6-42.2l0,0c22.7-7.4,112.6,7.7,83.4,42.2
			C356.5,253.3,377.3,310.3,372.4,359.3z"/>
		<path style="fill:#93B9AE;" d="M318,237c-18.5,12.6-45.9,8.2-45.9,8.2s18.9-0.7,37.7-12.6C313,234,315.2,235.3,318,237z"/>
		<path style="fill:#93B9AE;" d="M296.8,263.5c0,0,47.1,56,46.4,80.9c0,0-13.4-7.1-33.4-7.2C309.9,337.3,320,318.9,296.8,263.5z"/>
		<path style="fill:#93B9AE;" d="M173.4,237c18.5,12.6,45.9,8.2,45.9,8.2s-18.9-0.7-37.7-12.6C178.4,234,176.3,235.3,173.4,237z"/>
		<path style="fill:#93B9AE;" d="M194.7,263.5c0,0-47.1,56-46.4,80.9c0,0,13.4-7.1,33.4-7.2C181.6,337.3,171.4,318.9,194.7,263.5z"
			/>
		<path style="fill:#95B3A9;stroke:#004643;stroke-width:1.5079;stroke-miterlimit:10;" d="M304.4,212.3c0,6.6-10.7,12.4-26.9,15.8
			l0,0c-5.5,1.1-11.6,2-18.2,2.5l-10.1,14.7l-9.9-14.3c-1.9-0.1-3.8-0.2-5.6-0.3c-6.1-0.4-11.9-1.1-17.1-2.1c-0.2,0-0.5-0.1-0.7-0.1
			l0,0c-17.1-3.3-28.5-9.2-28.5-16.1c0-10.3,26.2-18.7,58.6-18.7C278.2,193.6,304.4,202,304.4,212.3z"/>
		<g>
			<path style="fill:none;stroke:#004643;stroke-width:1.5079;stroke-linecap:round;stroke-miterlimit:10;" d="M309.9,231.7
				c0,0-16.4,12.1-37.8,13.4"/>
			<path style="fill:none;stroke:#004643;stroke-width:1.5079;stroke-linecap:round;stroke-miterlimit:10;" d="M296.8,263.5
				c0,0,19.9,43.2,13.1,73.7"/>
			<path style="fill:none;stroke:#004643;stroke-width:1.5079;stroke-linecap:round;stroke-miterlimit:10;" d="M281.8,315.4
				c0,0,21.9,37.1,15,83.3c0,0,16,2.4,24.3-0.9"/>
			<path style="fill:none;stroke:#004643;stroke-width:1.5079;stroke-linecap:round;stroke-miterlimit:10;" d="M346.9,346.8
				c0,0-20.2-14.4-55.2-7.8"/>
			<path style="fill:none;stroke:#004643;stroke-width:1.5079;stroke-linecap:round;stroke-miterlimit:10;" d="M181.8,231.7
				c0,0,16.4,12.1,37.8,13.4"/>
			<path style="fill:none;stroke:#004643;stroke-width:1.5079;stroke-linecap:round;stroke-miterlimit:10;" d="M194.9,263.5
				c0,0-19.9,43.2-13.1,73.7"/>
			<path style="fill:none;stroke:#004643;stroke-width:1.5079;stroke-linecap:round;stroke-miterlimit:10;" d="M209.9,315.4
				c0,0-21.9,37.1-15,83.3c0,0-11.1,1.8-24.3-0.9"/>
			<path style="fill:none;stroke:#004643;stroke-width:1.5079;stroke-linecap:round;stroke-miterlimit:10;" d="M144.8,346.8
				c0,0,20.2-14.4,55.2-7.8"/>
		</g>
		<path style="fill:#E8E4E6;" d="M320,242.5c9.7,4.7,16.8,13.1,23.2,21.5c13.5,18.2,21.1,40.3,23,62.7c0.7,9.2,1,18.5-0.7,27.6
			c-0.4-9.2,0-18.3-1.1-27.4c-2.5-21.9-10.6-43.2-23.6-61.1C334.6,257.3,327.2,250.1,320,242.5L320,242.5z"/>
		<path style="fill:#E8E4E6;" d="M277.7,318c3.6,1.4,5.2,4.8,6.9,7.9c4,7.7,6,16.3,7.1,24.9c0.2,1.7,0.4,3.4,0,5.2
			c-0.9-1.6-1.1-3.3-1.5-4.9c-1.1-4.9-2.6-9.8-4.4-14.5c-1.2-3.1-2.5-6.2-4-9.2C280.3,324.2,278.2,321.6,277.7,318L277.7,318z"/>
		<path style="fill:#E8E4E6;" d="M296.1,342c3.8-2.5,8.1-2.3,12.2-2.5c10.4-0.2,21,1.4,30.5,5.7c1.9,0.8,3.8,1.8,5.3,3.3
			c-2.2-0.3-3.9-1.3-5.9-1.9c-5.7-2-11.8-3.1-17.8-3.6c-4-0.3-8.1-0.4-12.1-0.4C304.2,342.6,300.3,343.3,296.1,342L296.1,342z"/>
	</g>
	<g>
		<path style="fill:#F9BC60;stroke:#004643;stroke-width:1.5079;stroke-linecap:round;stroke-linejoin:round;" d="M405.7,418.1
			c0,1-0.2,2-0.6,2.9c-0.7,1.8-2.1,3.3-3.9,4.4s-4,1.7-6.2,1.7H96.5c-2.1,0-4.1-0.5-5.9-1.5c-1.7-1-3.1-2.4-3.9-4s-1-3.4-0.6-5.2
			c0.4-1.7,1.4-3.3,2.9-4.6c0.7-0.6,1.4-1.1,2.3-1.5c1.6-0.8,3.4-1.2,5.2-1.2h298.6c2.8,0,5.5,0.9,7.5,2.6
			C404.6,413.5,405.7,415.7,405.7,418.1z"/>
		<g>
			<path style="fill:#BF8A4A;" d="M404.1,421.3c-0.7,1.4-1.8,2.7-3.3,3.6c-1.6,1-3.7,1.5-5.7,1.5H96.5c-1.9,0-3.8-0.5-5.4-1.4
				s-2.8-2.2-3.6-3.7c-0.7-1.5-0.9-3.2-0.5-4.7c0.2-0.9,0.6-1.8,1.2-2.6c0.1,0.9,0.4,1.8,0.8,2.7c0.8,1.8,2.3,3.3,4.2,4.4
				c1.9,1.1,4.1,1.6,6.4,1.7h298.6C400.3,422.6,402.3,422.2,404.1,421.3z"/>
		</g>
	</g>
	<path style="fill:#D99882;stroke:#004643;stroke-width:1.5079;stroke-miterlimit:10;" d="M277.5,228.1c-4.3,0.9-8.9,1.6-13.9,2.1
		c-2.8,0.3-5.3,1.8-6.9,4.1l-7.6,11l-7.2-10.4c-1.7-2.4-4.4-3.9-7.3-4.1c-0.3,0-0.7,0-1-0.1c-6.4-0.4-12.4-1.2-17.8-2.2l0,0
		c0.4-3.2,0.4-40.7,0.2-42.9l0,0c8.5-3.6,52.8-3.6,61.2,0h0.1c0,0.2,0,0.3,0,0.5C277.2,186.3,277.2,225.9,277.5,228.1z"/>
	<g id="kepala_00000013166423445001094160000017008780153474234020_">
		<path style="fill:#004643;stroke:#004643;stroke-width:1.5079;stroke-linecap:round;stroke-linejoin:round;" d="M324.4,122.1
			L324.4,122.1c-0.5,2.5-1.1,4.8-1.7,6.9c-1.7,6.2-4,12.2-6.9,17.9c1-6.6,1.4-13.3,1.3-19.6c0-1.6,0-3.2-0.1-4.7
			c-0.6-10.9-3.8-21.4-6.9-32c0.6-4.2,2.5-11.6,1.9-17.4c-7.6,1.6-3.9-13.6-10.9-16.3c-1.6-8.5-22.8-17.6-34-15.4
			c-5.7,0-14.3,5.8-18.9,5c-3.4-1.1-20.7-12.3-38.6,6.2c-3.6-0.1-2.4-4.9-3.4-6.8c-0.5-0.3-2.5,4-2.7,4.2
			c-8.7,22-27.5,10.8-18.9,33.4c-5.3,12.3-7.6,26.9-7.4,42.1c0.1,7.7,0.9,15.5,2.3,23.2h-0.4l0,0c-1.6-1.7-7.3-9.1-10.5-26.1l0,0
			l0,0c-1.8-10.6-2.4-21.4-1.7-32.1c1.4-28.2,12.6-44.1,18.1-46.9s3.1-6.8,4.4-9.6c1.3-2.8,5-2.1,9.9-7.4s21.4-8.2,21.4-8.2
			c12.3-7.4,38.9-5.9,46.5-2.8s1.2,2.7,12.7,5.6s19.2,7.6,20.5,10.8s8.1,16.8,16,20.5c7.9,3.8,8.6,17.9,8.6,17.9
			C328,87.5,328,105,324.4,122.1z"/>
		<g>
			<path style="fill:#F8BB9C;stroke:#004643;stroke-width:1.5079;stroke-miterlimit:10;" d="M317.1,127.4c0.1,6.3-0.3,12.9-1.3,19.6
				c-1.2,8.5-3.3,17.1-6.3,25.3c-0.6,1.7-1.2,3.3-1.9,4.9c0,0.1-0.1,0.1-0.1,0.2c-8.4,21.7-22.6,38.4-39.8,45.9
				c-6.5,2.8-13.3,4.4-20.5,4.4c-30.1,0-55.7-27.3-64.9-65.2l0,0c-1.3-4.4-2.3-9-3.1-13.5c-1.4-7.7-2.2-15.5-2.3-23.2
				c0-3.8,0.1-7.5,0.3-11.2c0.8-11.1,3.1-21.7,7.1-30.9c-8.6-22.6,10.2-11.4,18.9-33.4c0.2-0.1,2.3-4.5,2.7-4.2
				c0.9,1.7,0,5.7,2.4,6.6c0.3,0.1,0.6,0.2,1,0.2c17.9-18.5,35.3-7.3,38.6-6.2c4.6,0.8,13.2-5,18.9-5c1-0.2,2.2-0.3,3.4-0.3
				c11.6-0.2,29.2,8,30.6,15.8c7,2.7,3.4,17.9,10.9,16.3c0.6,5.8-1.3,13.3-1.9,17.4c3.2,10.5,6.3,21,6.9,32
				C317.1,124.2,317.1,125.8,317.1,127.4z"/>
			<g>
				<path style="fill:#D99882;" d="M316.2,134.9c-1.6-14.9-6.6-33.1-9.2-41.6c-0.1-0.4-0.2-0.9-0.1-1.3c0.2-1,0.4-2.1,0.6-3.4
					c0.6-3,1.3-6.7,1.4-10.1V78l-0.5-0.2c-3.5-1.4-4.7-6.3-5.4-9.3c-0.8-3.6-1.6-6.3-3.3-7c-1-0.4-1.7-1.2-1.9-2.2
					c-0.3-1.7-2.4-4.1-5.5-6.1c-7.9-7.2-17.9-8.9-26.5-8.9c-2.7,0-5.3,0.2-7.6,0.4c3-1.2,6.1-2.4,8.6-2.4l0,0h0.2
					c1-0.2,2.1-0.3,3.2-0.3h0.3c11.1,0,28.1,7.7,29.5,15.1l0.1,0.4l0.4,0.2c3,1.1,3.8,4.9,4.7,8.6c0.9,4,1.9,8.2,5.9,7.9
					c0.3,4.3-0.7,9.4-1.4,13.2c-0.2,1.2-0.4,2.3-0.6,3.3v0.2v0.2c3.1,10.3,6.2,20.9,6.9,31.8c0.1,1.6,0.2,3.1,0.1,4.7l0,0
					C316.4,129.9,316.3,132.3,316.2,134.9z"/>
			</g>
			<g>
				<path style="fill:#D99882;" d="M264.1,223.9c-5.5,2-11.1,3-16.8,3c-29,0-54.7-25.8-64.1-64.3l0,0l-0.1-0.4
					c-1.2-4.4-2.3-8.9-3.1-13.5c-1.4-7.8-2.2-15.5-2.3-23.1c0-1.9,0-3.7,0-5.5c6.9,51.9,18.4,64.3,29.2,78.8
					C224.6,221.4,242.7,226.9,264.1,223.9z"/>
			</g>
		</g>
		<path style="fill:#004643;" d="M213.1,108.6c-6.7,0-12.2,9.4-12.2,21s5.5,21,12.2,21s12.2-9.4,12.2-21S219.8,108.6,213.1,108.6z"
			/>
		<path style="fill:#E8E4E6;" d="M220.7,121.5c0,0.8-0.2,1.6-0.7,2.3s-1.1,1.2-1.9,1.5c-0.8,0.3-1.6,0.4-2.4,0.2s-1.6-0.6-2.1-1.1
			c-0.6-0.6-1-1.3-1.1-2.1c-0.2-0.8-0.1-1.7,0.2-2.4s0.9-1.4,1.5-1.9c0.7-0.5,1.5-0.7,2.3-0.7c1.1,0,2.2,0.4,3,1.2
			C220.2,119.4,220.7,120.4,220.7,121.5z"/>
		<path style="fill:#004643;" d="M281.4,108.6c-6.7,0-12.2,9.4-12.2,21s5.4,21,12.2,21c6.7,0,12.2-9.4,12.2-21
			S288.2,108.6,281.4,108.6z"/>
		<path style="fill:#E8E4E6;" d="M282.3,121.5c0,0.8-0.2,1.6-0.7,2.3s-1.1,1.2-1.9,1.5s-1.6,0.4-2.4,0.2s-1.6-0.6-2.1-1.1
			c-0.6-0.6-1-1.3-1.1-2.1c-0.2-0.8-0.1-1.7,0.2-2.4c0.3-0.8,0.9-1.4,1.5-1.9c0.7-0.5,1.5-0.7,2.3-0.7c1.1,0,2.2,0.4,3,1.2
			C281.9,119.4,282.3,120.4,282.3,121.5z"/>
		<path style="fill:#004643;" d="M238.1,101.9c-0.6-1.6-1.6-3-2.9-4.1c-1.3-1.1-2.8-1.9-4.5-2.3c-5.6-1.3-8.5-6.4-17.6-7.8
			c-3.5-0.5-7-0.7-10.5-0.6l-0.2,0.5c-3.1,0.8-5.8,2.6-7.8,5.2c0,0-5.8,1.9-6.5,10.3c0,0,4.9-4,14.2-5.5l-0.8,1.4
			c0,0,12.2-4.1,22.6,1.7C233.2,105.6,238.1,101.9,238.1,101.9z"/>
		<path style="fill:#004643;" d="M307,111.9c-5.8-6.4-13.8-10.4-22.4-11.3c0,0-3.3,2.7-8.9,0.7c0,0-9.8,5-13.6,2
			c-0.2-1.1,0-2.3,0.5-3.3s1.3-1.9,2.3-2.4c2.5,0,5-0.9,7-2.5c3.8-2.7,21.3-6.4,26.1,2.2C298.1,97.3,306.1,98.6,307,111.9z"/>
		<path style="fill:none;stroke:#004643;stroke-width:1.5079;stroke-linecap:round;stroke-linejoin:round;" d="M240.4,152.3l8.2,5.2
			c0.8,0.5,1.7,0.8,2.7,0.8c0.9,0,1.9-0.3,2.6-0.8l7.5-5.2"/>
		<path style="fill:#E8E4E6;stroke:#004643;stroke-width:1.5079;stroke-linecap:round;stroke-linejoin:round;" d="M281.8,172.8
			c-0.1,15.3-14.4,27.7-32.1,27.7s-32-12.4-32.1-27.7c9,3.4,20.1,5.4,32.1,5.4S272.8,176.2,281.8,172.8z"/>
		<path style="fill:none;stroke:#004643;stroke-width:1.5079;stroke-linecap:round;stroke-linejoin:round;" d="M220.7,184.6
			c8.4,2.7,18.4,4.3,29,4.3c10.6,0,20.6-1.6,29-4.3l0,0"/>
		<g>
			<path style="fill:#F8BB9C;stroke:#004643;stroke-width:1.5079;stroke-miterlimit:10;" d="M184.7,171.9c-3,1.6-10.5,4.1-13.9-7.5
				c0,0-1.1-0.3-2.3-1.7c-1.7-1.9-3.6-5.7-3.7-13.6c-0.2-13.8-5.8-19.9-5.2-23.4c0.3-2.2,1.5-4.3,3.8-4.5c1.3-0.2,3,0.2,5.2,1.5l0,0
				l0,0c3.1,16.9,8.9,24.3,10.5,26.1l0,0h0.4c1.2,6.9,3,13.7,5.2,20.3C184.3,170.1,184.3,171.1,184.7,171.9z"/>
			<g>
				<path style="fill:#D99882;" d="M183.8,171.5c-1.6,0.8-4.3,1.6-6.7,0.5c-2.5-1-4.3-3.7-5.6-7.9l-0.1-0.4l-0.4-0.1
					c0,0-0.5-0.1-1.1-0.7c0.1,0,0.2-0.1,0.3-0.1c2.9-0.8,4.5,0.4,5.7,1.2c0.8,0.5,1.4,1,2.3,0.8c0.8-0.2,1.2-1.1,1.6-1.9
					c1.8-4.4-1.4-9.4-6.8-17.8l-1-1.6c-4.1-6.4-6.6-16.8-7.7-21.8c1,0.1,2.2,0.5,3.6,1.2c3.2,16.9,8.9,24.3,10.7,26.2l0.2,0.2h0.1
					c1.2,6.6,2.9,13.2,5,19.6C183.6,170.1,183.6,170.8,183.8,171.5z"/>
			</g>
		</g>
		<g>
			<path style="fill:#F8BB9C;stroke:#004643;stroke-width:1.5079;stroke-miterlimit:10;" d="M327,149.2c-0.2,13.8-6,15.2-6,15.2
				c-0.2,0.7-0.4,1.4-0.7,2l0,0c-2.9,7.3-7.6,7.4-10.9,6.4c0.1-0.2,0.1-0.4,0.2-0.6c2.9-8.2,5.1-16.8,6.3-25.3
				c2.9-5.7,5.3-11.7,6.9-17.9c0.3-1.1,0.6-2.2,0.9-3.4c0.3-1.1,0.5-2.2,0.8-3.4c0,0,0-0.1,0.1-0.1c5.1-2.4,7.3,0.6,7.8,3.7
				C332.8,129.3,327.2,135.3,327,149.2z"/>
			<g>
				<path style="fill:#D99882;" d="M331.5,125.9c0.2,1.1-0.5,2.7-1.3,5c-0.8,1.9-1.7,4.3-2.5,7.3s-1.4,6.6-1.4,11
					c-0.2,10.5-3.7,13.5-5,14.3c0.4-2.1,1.1-3.9,2.2-5.3c3-3.8,2.5-7.8,1.9-12.1c-0.1-1-0.3-2.1-0.3-3.1c-0.2-2.6,0.6-5.4,1.5-8.1
					c0.9-2.9,1.7-5.7,1.3-8.2c-0.2-1-0.6-1.6-1.3-2c-0.3-0.2-0.7-0.3-1.2-0.3c-0.2,0-0.5,0-0.8,0.1c0.2-0.6,0.3-1.2,0.4-1.8
					c1.8-0.8,3.3-0.9,4.4-0.3C330.5,122.9,331.3,124.2,331.5,125.9z"/>
			</g>
		</g>
	</g>
	<g>
		<path style="fill:#E8E4E6;stroke:#004643;stroke-width:1.5079;stroke-miterlimit:10;" d="M340.9,300h-90h-90
			c-3.1,0-5.6,2.7-5.3,5.8l7.2,90c0.2,2.8,2.5,4.9,5.3,4.9h82.7h82.7c2.8,0,5.1-2.1,5.3-4.9l7.2-90C346.5,302.7,344,300,340.9,300z"
			/>
		<path style="fill:#BFBFBF;stroke:#004643;stroke-width:1.5079;stroke-miterlimit:10;" d="M337.4,401.8c-0.7-0.7-1.7-1.2-2.8-1.2
			h-83.7h-83.7c-1.1,0-2.1,0.4-2.8,1.2c-0.7,0.7-1.2,1.7-1.2,2.8c0,2.2,1.8,4,4,4h83.7h83.7c2.2,0,4-1.8,4-4
			C338.6,403.5,338.1,402.5,337.4,401.8z"/>
	</g>
	<circle style="fill:#ABD1C6;stroke:#004643;stroke-width:1.5079;stroke-miterlimit:10;" cx="249.7" cy="350.4" r="8.7"/>
</g>
</svg>
