<svg version="1.1" id="Layer_1" xmlns="http://www.w3.org/2000/svg" xmlns:xlink="http://www.w3.org/1999/xlink" x="0px" y="0px"
	 viewBox="0 0 500 500" style="enable-background:new 0 0 500 500;" xml:space="preserve">
<g>
	<g>
		<path style="fill:#ABD1C6;stroke:#004643;stroke-miterlimit:10;" d="M373.8,386.2c-6.4,21.7-31,30.1-50.2,37.7
			c-0.2,3.9-2,7.5-4.6,10.5H181c-2.6-3-4.4-6.6-4.6-10.5c-19.2-7.6-43.8-16-50.2-37.7c-4.7-47.9,15.3-103.5,61.2-124.8
			c-22.4-23.1,23.2-38.6,43.7-41.3c0,0,0,0,0,0c22.3-7.2,110.1,7.5,81.6,41.3C358.3,282.5,378.6,338.3,373.8,386.2z"/>
		<path style="fill:#93B9AE;" d="M320.6,266.6c-18.1,12.4-44.9,8-44.9,8s18.5-0.7,36.9-12.4C315.7,263.6,317.8,264.9,320.6,266.6z"
			/>
		<path style="fill:#93B9AE;" d="M299.8,292.5c0,0,46.1,54.8,45.4,79.1c0,0-13.1-7-32.6-7C312.6,364.6,322.5,346.7,299.8,292.5z"/>
		<path style="fill:#93B9AE;" d="M179.1,266.6c18.1,12.4,44.9,8,44.9,8s-18.5-0.7-36.9-12.4C184.1,263.6,181.9,264.9,179.1,266.6z"
			/>
		<path style="fill:#93B9AE;" d="M199.9,292.5c0,0-46.1,54.8-45.4,79.1c0,0,13.1-7,32.6-7C187.1,364.6,177.2,346.7,199.9,292.5z"/>
		<path style="fill:#95B3A9;stroke:#004643;stroke-miterlimit:10;" d="M307.3,242.4c0,6.5-10.5,12.2-26.3,15.4h0
			c-5.4,1.1-11.4,1.9-17.8,2.4l-9.9,14.3l-9.7-14c-1.9-0.1-3.7-0.2-5.5-0.3c-6-0.4-11.6-1.1-16.7-2.1c-0.2,0-0.5-0.1-0.7-0.1h0
			c-16.7-3.2-27.9-9-27.9-15.7c0-10.1,25.7-18.3,57.3-18.3C281.6,224.1,307.3,232.3,307.3,242.4z"/>
		<g>
			<path style="fill:none;stroke:#004643;stroke-linecap:round;stroke-miterlimit:10;" d="M312.6,261.3c0,0-16,11.9-36.9,13.1"/>
			<path style="fill:none;stroke:#004643;stroke-linecap:round;stroke-miterlimit:10;" d="M299.8,292.5c0,0,19.4,42.3,12.8,72.1"/>
			<path style="fill:none;stroke:#004643;stroke-linecap:round;stroke-miterlimit:10;" d="M285.2,343.2c0,0,21.5,36.3,14.6,81.5
				c0,0,15.7,2.3,23.8-0.9"/>
			<path style="fill:none;stroke:#004643;stroke-linecap:round;stroke-miterlimit:10;" d="M348.9,374c0,0-19.8-14.1-54-7.7"/>
			<path style="fill:none;stroke:#004643;stroke-linecap:round;stroke-miterlimit:10;" d="M187.4,261.3c0,0,16,11.9,36.9,13.1"/>
			<path style="fill:none;stroke:#004643;stroke-linecap:round;stroke-miterlimit:10;" d="M200.2,292.5c0,0-19.4,42.3-12.8,72.1"/>
			<path style="fill:none;stroke:#004643;stroke-linecap:round;stroke-miterlimit:10;" d="M214.8,343.2c0,0-21.5,36.3-14.6,81.5
				c0,0-10.8,1.8-23.8-0.9"/>
			<path style="fill:none;stroke:#004643;stroke-linecap:round;stroke-miterlimit:10;" d="M151.1,374c0,0,19.8-14.1,54-7.7"/>
		</g>
		<path style="fill:#E8E4E6;" d="M322.6,271.9c9.5,4.6,16.5,12.8,22.7,21.1c13.2,17.8,20.6,39.4,22.5,61.3c0.6,9,1,18.1-0.7,27
			c-0.4-9,0-17.9-1.1-26.8c-2.5-21.5-10.3-42.3-23.1-59.8C336.8,286.4,329.6,279.3,322.6,271.9L322.6,271.9z"/>
		<path style="fill:#E8E4E6;" d="M281.1,345.8c3.5,1.3,5.1,4.7,6.7,7.7c3.9,7.6,5.9,15.9,7,24.3c0.2,1.7,0.4,3.3,0,5.1
			c-0.9-1.6-1.1-3.2-1.5-4.8c-1.1-4.8-2.5-9.6-4.3-14.2c-1.2-3.1-2.5-6.1-3.9-9C283.7,351.8,281.7,349.3,281.1,345.8L281.1,345.8z"
			/>
		<path style="fill:#E8E4E6;" d="M299.2,369.3c3.7-2.5,7.9-2.3,12-2.5c10.2-0.2,20.5,1.4,29.9,5.6c1.9,0.7,3.7,1.8,5.2,3.2
			c-2.1-0.3-3.8-1.3-5.7-1.8c-5.6-2-11.5-3-17.4-3.5c-3.9-0.3-7.9-0.4-11.9-0.4C307.1,369.8,303.2,370.5,299.2,369.3L299.2,369.3z"
			/>
	</g>
	<g>
		<path style="fill:#F9BC60;stroke:#004643;stroke-linecap:round;stroke-linejoin:round;" d="M406.4,443.7c0,1-0.2,1.9-0.6,2.8
			c-0.7,1.7-2,3.2-3.8,4.3c-1.8,1.1-3.9,1.6-6,1.6H103.9c-2,0-4-0.5-5.7-1.5c-1.7-1-3-2.3-3.8-3.9c-0.8-1.6-1-3.3-0.6-5.1
			c0.4-1.7,1.4-3.2,2.8-4.5c0.7-0.6,1.4-1,2.2-1.4c1.5-0.8,3.3-1.2,5.1-1.2H396c2.8,0,5.4,0.9,7.3,2.6
			C405.3,439.2,406.4,441.4,406.4,443.7z"/>
		<g>
			<path style="fill:#BF8A4A;" d="M404.8,446.8c-0.7,1.4-1.8,2.6-3.2,3.5c-1.6,1-3.6,1.5-5.5,1.5H103.9c-1.9,0-3.7-0.5-5.2-1.4
				c-1.6-0.9-2.8-2.2-3.5-3.6c-0.7-1.5-0.9-3.1-0.5-4.6c0.2-0.9,0.6-1.8,1.2-2.6c0.1,0.9,0.4,1.8,0.8,2.6c0.8,1.7,2.2,3.2,4.1,4.3
				c1.8,1,4,1.6,6.2,1.6h292.1C401.1,448.1,403.1,447.7,404.8,446.8z"/>
		</g>
	</g>
	<path style="fill:#D99882;stroke:#004643;stroke-miterlimit:10;" d="M280.9,257.8c-4.2,0.9-8.7,1.5-13.6,2c-2.7,0.3-5.2,1.7-6.7,4
		l-7.4,10.7l-7-10.2c-1.6-2.4-4.3-3.8-7.2-4c-0.3,0-0.7,0-1-0.1c-6.3-0.4-12.1-1.2-17.4-2.2c0,0,0,0,0,0c0.4-3.1,0.4-39.8,0.2-42h0
		c8.3-3.5,51.6-3.6,59.9,0c0,0,0.1,0,0.1,0c0,0.2,0,0.3,0,0.5C280.7,217,280.7,255.7,280.9,257.8z"/>
	<g>
		<path style="fill:#004643;stroke:#004643;stroke-linecap:round;stroke-linejoin:round;" d="M326.9,154.1c0,0,0,0.1,0,0.1
			c-0.5,2.4-1.1,4.6-1.7,6.7c-1.6,6.1-3.9,12-6.8,17.5c0.9-6.5,1.4-13,1.3-19.2c0-1.5,0-3.1-0.1-4.6c-0.6-10.7-3.7-21-6.8-31.3
			c0.6-4.1,2.5-11.3,1.9-17c-7.4,1.6-3.8-13.3-10.7-16c-1.6-8.3-22.3-17.2-33.2-15.1c-5.6,0-14,5.7-18.5,4.9
			c-3.3-1.1-20.2-12-37.8,6c-3.5-0.1-2.4-4.8-3.3-6.7c-0.4-0.3-2.5,4-2.7,4.1c-8.5,21.5-26.9,10.6-18.5,32.7
			c-5.2,12-7.5,26.4-7.3,41.2c0.1,7.5,0.9,15.2,2.2,22.7h-0.4l0,0c-1.5-1.7-7.2-8.9-10.3-25.5v0h0c-1.7-10.4-2.3-20.9-1.7-31.4
			c1.3-27.6,12.3-43.1,17.7-45.9c5.4-2.7,3-6.7,4.3-9.4c1.3-2.7,4.9-2.1,9.7-7.2c4.8-5.2,20.9-8.1,20.9-8.1
			c12.1-7.2,38.1-5.8,45.5-2.7c7.4,3,1.2,2.7,12.4,5.5c11.2,2.8,18.8,7.4,20,10.5c1.2,3.1,8,16.4,15.7,20.1
			c7.7,3.7,8.4,17.5,8.4,17.5C330.4,120.3,330.3,137.5,326.9,154.1z"/>
		<g>
			<path style="fill:#F8BB9C;stroke:#004643;stroke-miterlimit:10;" d="M319.7,159.3c0.1,6.2-0.3,12.7-1.3,19.2
				c-1.2,8.3-3.3,16.7-6.2,24.7c-0.6,1.6-1.2,3.2-1.9,4.8c0,0.1-0.1,0.1-0.1,0.2c-8.2,21.3-22.2,37.6-38.9,44.9
				c-6.3,2.8-13.1,4.3-20,4.3c-29.5,0-54.5-26.7-63.5-63.8c0,0,0,0,0,0c-1.2-4.3-2.2-8.8-3-13.2c-1.4-7.6-2.1-15.2-2.2-22.7
				c0-3.7,0.1-7.3,0.3-10.9c0.8-10.9,3.1-21.2,6.9-30.3c-8.4-22.1,10-11.2,18.5-32.7c0.2-0.1,2.2-4.4,2.7-4.1c0.9,1.6,0,5.6,2.4,6.5
				c0.3,0.1,0.6,0.2,1,0.2c17.6-18.1,34.5-7.2,37.8-6c4.5,0.8,12.9-4.9,18.5-4.9c1-0.2,2.1-0.3,3.3-0.3c11.4-0.2,28.5,7.9,30,15.4
				c6.9,2.6,3.3,17.6,10.7,16c0.6,5.7-1.2,13-1.9,17c3.1,10.3,6.1,20.6,6.8,31.3C319.7,156.2,319.7,157.7,319.7,159.3z"/>
			<g>
				<path style="fill:#D99882;" d="M318.8,166.6c-1.5-14.6-6.5-32.4-9-40.7c-0.1-0.4-0.2-0.8-0.1-1.3c0.1-1,0.4-2.1,0.6-3.3
					c0.5-2.9,1.2-6.5,1.3-9.9l0-0.5l-0.5-0.2c-3.5-1.3-4.6-6.2-5.3-9.1c-0.8-3.5-1.5-6.2-3.2-6.8c-0.9-0.4-1.7-1.2-1.8-2.2
					c-0.3-1.7-2.4-4-5.4-6c-7.7-7-17.5-8.7-25.9-8.7c-2.7,0-5.2,0.2-7.4,0.4c3-1.2,6-2.3,8.4-2.3c0,0,0,0,0,0l0.1,0
					c0.9-0.2,2-0.3,3.2-0.3h0.3c10.9,0,27.5,7.6,28.9,14.8l0.1,0.4l0.4,0.1c2.9,1.1,3.7,4.8,4.6,8.4c0.9,4,1.8,8.1,5.8,7.7
					c0.3,4.2-0.7,9.2-1.4,12.9c-0.2,1.2-0.4,2.3-0.6,3.2l0,0.2l0,0.1c3,10,6.1,20.4,6.7,31.1c0.1,1.5,0.1,3.1,0.1,4.6v0
					C319,161.7,319,164.1,318.8,166.6z"/>
			</g>
			<g>
				<path style="fill:#D99882;" d="M267.9,253.7c-5.3,1.9-10.9,2.9-16.5,2.9c-28.3,0-53.5-25.3-62.7-62.9l0,0l-0.1-0.4
					c-1.2-4.3-2.2-8.7-3-13.2c-1.4-7.6-2.1-15.2-2.2-22.6c0-1.8,0-3.6,0-5.4c6.7,50.7,18,62.9,28.6,77.1
					C229.2,251.2,247,256.6,267.9,253.7z"/>
			</g>
		</g>
		<path style="fill:#004643;" d="M218,140.9c-6.6,0-11.9,9.2-11.9,20.6c0,11.3,5.3,20.6,11.9,20.6c6.6,0,11.9-9.2,11.9-20.6
			C229.9,150.1,224.5,140.9,218,140.9z"/>
		<path style="fill:#E8E4E6;" d="M225.4,153.6c0,0.8-0.2,1.6-0.7,2.3c-0.4,0.7-1.1,1.2-1.8,1.5c-0.8,0.3-1.6,0.4-2.4,0.2
			c-0.8-0.2-1.5-0.5-2.1-1.1c-0.6-0.6-1-1.3-1.1-2.1c-0.2-0.8-0.1-1.6,0.2-2.4c0.3-0.7,0.8-1.4,1.5-1.8c0.7-0.5,1.5-0.7,2.3-0.7
			c1.1,0,2.1,0.4,2.9,1.2C225,151.5,225.4,152.5,225.4,153.6z"/>
		<path style="fill:#004643;" d="M284.8,140.9c-6.6,0-11.9,9.2-11.9,20.6c0,11.3,5.3,20.6,11.9,20.6c6.6,0,11.9-9.2,11.9-20.6
			C296.7,150.1,291.4,140.9,284.8,140.9z"/>
		<path style="fill:#E8E4E6;" d="M285.7,153.6c0,0.8-0.2,1.6-0.7,2.3c-0.5,0.7-1.1,1.2-1.8,1.5c-0.7,0.3-1.6,0.4-2.4,0.2
			c-0.8-0.2-1.5-0.5-2.1-1.1c-0.6-0.6-1-1.3-1.1-2.1c-0.2-0.8-0.1-1.6,0.2-2.4c0.3-0.7,0.8-1.4,1.5-1.8c0.7-0.5,1.5-0.7,2.3-0.7
			c1.1,0,2.1,0.4,2.9,1.2C285.3,151.5,285.7,152.5,285.7,153.6z"/>
		<path style="fill:#004643;" d="M242.4,134.4c-0.6-1.6-1.6-2.9-2.9-4c-1.3-1.1-2.8-1.9-4.4-2.3c-5.5-1.3-8.3-6.3-17.2-7.6
			c-3.4-0.5-6.8-0.7-10.3-0.6l-0.2,0.5c-3,0.8-5.7,2.6-7.7,5c0,0-5.7,1.9-6.4,10c0,0,4.8-3.9,13.9-5.4l-0.8,1.3c0,0,11.9-4,22.1,1.7
			C237.7,138,242.4,134.4,242.4,134.4z"/>
		<path style="fill:#004643;" d="M309.9,144.1c-5.7-6.2-13.5-10.2-21.9-11.1c0,0-3.2,2.6-8.7,0.7c0,0-9.6,4.9-13.3,2
			c-0.2-1.1,0-2.2,0.5-3.2c0.5-1,1.3-1.8,2.2-2.4c2.5,0,4.9-0.9,6.8-2.4c3.7-2.7,20.9-6.3,25.6,2.2
			C301.1,129.9,308.9,131.2,309.9,144.1z"/>
		<path style="fill:none;stroke:#004643;stroke-linecap:round;stroke-linejoin:round;" d="M244.7,183.7l8,5.1
			c0.8,0.5,1.7,0.8,2.6,0.7c0.9,0,1.8-0.3,2.6-0.8l7.4-5.1"/>
		<path style="fill:#E8E4E6;stroke:#004643;stroke-linecap:round;stroke-linejoin:round;" d="M285.2,203.7
			c-0.1,14.9-14.1,27.1-31.4,27.1s-31.3-12.1-31.4-27.1c8.8,3.3,19.7,5.2,31.4,5.2C265.5,209,276.4,207,285.2,203.7z"/>
		<path style="fill:none;stroke:#004643;stroke-linecap:round;stroke-linejoin:round;" d="M225.4,215.3c8.2,2.7,18,4.2,28.4,4.2
			s20.1-1.5,28.4-4.2h0"/>
		<g>
			<path style="fill:#F8BB9C;stroke:#004643;stroke-miterlimit:10;" d="M190.1,202.9c-3,1.6-10.3,4-13.6-7.3c0,0-1.1-0.3-2.3-1.6
				c-1.6-1.8-3.5-5.6-3.6-13.3c-0.2-13.5-5.6-19.5-5.1-22.9c0.3-2.2,1.4-4.2,3.7-4.4c1.3-0.2,2.9,0.2,5,1.4h0v0
				c3.1,16.6,8.7,23.8,10.3,25.5l0,0h0.4c1.2,6.8,2.9,13.4,5.1,19.9C189.8,201.1,189.8,202,190.1,202.9z"/>
			<g>
				<path style="fill:#D99882;" d="M189.3,202.5c-1.6,0.7-4.2,1.5-6.6,0.5c-2.4-1-4.2-3.6-5.5-7.7l-0.1-0.4l-0.4-0.1
					c0,0-0.5-0.1-1.1-0.6c0.1,0,0.2-0.1,0.3-0.1c2.8-0.7,4.4,0.4,5.5,1.2c0.7,0.5,1.4,1,2.2,0.8c0.8-0.2,1.2-1.1,1.5-1.8
					c1.7-4.3-1.4-9.2-6.6-17.4l-1-1.5c-4-6.3-6.5-16.4-7.6-21.3c1,0.1,2.2,0.5,3.5,1.2c3.1,16.5,8.7,23.7,10.4,25.6l0.2,0.2h0.1
					c1.2,6.5,2.8,12.9,4.9,19.2C189.1,201,189.1,201.8,189.3,202.5z"/>
			</g>
		</g>
		<g>
			<path style="fill:#F8BB9C;stroke:#004643;stroke-miterlimit:10;" d="M329.4,180.6c-0.2,13.5-5.9,14.9-5.9,14.9
				c-0.2,0.7-0.4,1.3-0.7,1.9v0c-2.8,7.1-7.5,7.3-10.7,6.3c0.1-0.2,0.1-0.4,0.1-0.6c2.9-8,4.9-16.4,6.2-24.7
				c2.9-5.6,5.1-11.5,6.8-17.5c0.3-1.1,0.6-2.2,0.9-3.4c0.3-1.1,0.5-2.2,0.8-3.3c0,0,0-0.1,0.1-0.1c5-2.4,7.2,0.6,7.6,3.6
				C335.1,161.1,329.6,167.1,329.4,180.6z"/>
			<g>
				<path style="fill:#D99882;" d="M333.8,157.9c0.2,1.1-0.4,2.7-1.3,4.9c-0.7,1.9-1.7,4.2-2.4,7.2c-0.8,2.9-1.3,6.5-1.4,10.8
					c-0.1,10.3-3.6,13.2-4.9,14c0.4-2,1.1-3.8,2.2-5.2c2.9-3.7,2.4-7.7,1.9-11.9c-0.1-1-0.3-2-0.3-3.1c-0.2-2.5,0.6-5.3,1.4-7.9
					c0.9-2.9,1.7-5.6,1.3-8c-0.2-0.9-0.6-1.6-1.2-2c-0.3-0.2-0.7-0.3-1.2-0.3c-0.2,0-0.5,0-0.7,0.1c0.1-0.6,0.3-1.2,0.4-1.8
					c1.8-0.8,3.2-0.9,4.3-0.3C332.8,154.9,333.6,156.2,333.8,157.9z"/>
			</g>
		</g>
	</g>
	<g>
		<path style="fill:#E8E4E6;stroke:#004643;stroke-miterlimit:10;" d="M343,328.2h-88h-88c-3.1,0-5.4,2.6-5.2,5.6l7.1,88
			c0.2,2.7,2.5,4.8,5.2,4.8H255h80.9c2.7,0,5-2.1,5.2-4.8l7.1-88C348.4,330.8,346,328.2,343,328.2z"/>
		<path style="fill:#BFBFBF;stroke:#004643;stroke-miterlimit:10;" d="M339.6,427.8c-0.7-0.7-1.7-1.1-2.8-1.1H255h-81.9
			c-1.1,0-2,0.4-2.8,1.1c-0.7,0.7-1.1,1.7-1.1,2.8c0,2.1,1.7,3.9,3.9,3.9H255h81.9c2.1,0,3.9-1.7,3.9-3.9
			C340.7,429.4,340.3,428.5,339.6,427.8z"/>
	</g>
	<circle style="fill:#ABD1C6;stroke:#004643;stroke-miterlimit:10;" cx="253.8" cy="377.4" r="8.5"/>
</g>
</svg>
